<svg width="20" height="19" viewBox="0 0 20 19" fill="none" xmlns="http://www.w3.org/2000/svg">
<path d="M5.45517 4.5473C3.45877 5.04663 2.27398 6.96183 2.80898 8.82561C3.3697 10.779 5.0906 12.3238 7.54591 13.5179C8.38384 13.9251 9.2531 14.2488 10.1016 14.5225C10.3988 14.6178 10.6755 14.7025 10.921 14.7693C11.0706 14.8101 11.1706 14.8417 11.2319 14.8559C11.46 14.9093 11.7203 14.8442 11.8892 14.6915C11.9347 14.6506 12.0044 14.5766 12.1121 14.4714C12.2889 14.299 12.4832 14.0965 12.6895 13.8752C13.2777 13.2422 13.8571 12.5561 14.3647 11.8124C15.8514 9.63232 16.5143 7.49129 15.9536 5.53793C15.4186 3.67414 13.3666 2.56851 11.3702 3.06784C10.2364 3.35144 9.29488 4.20501 8.84036 5.22084C7.91573 4.53418 6.65126 4.24814 5.45517 4.5473Z" fill="#B69121"/>
</svg>
