<svg width="9" height="9" viewBox="0 0 9 9" fill="none" xmlns="http://www.w3.org/2000/svg">
<path d="M2.45483 2.04629C1.55645 2.27099 1.0233 3.13283 1.26405 3.97153C1.51637 4.85054 2.29077 5.5457 3.39567 6.08306C3.77273 6.26629 4.1639 6.41197 4.54572 6.53514C4.67947 6.57802 4.80398 6.61612 4.91443 6.6462C4.98177 6.66457 5.02677 6.67876 5.05438 6.68517C5.15701 6.70921 5.27413 6.67991 5.35013 6.61119C5.37061 6.59276 5.40198 6.55947 5.45046 6.51213C5.53 6.43453 5.61742 6.34343 5.71028 6.24386C5.97497 5.95899 6.2357 5.65026 6.4641 5.31559C7.13313 4.33455 7.43143 3.37108 7.1791 2.49207C6.93835 1.65337 6.01498 1.15583 5.11661 1.38053C4.60637 1.50815 4.1827 1.89226 3.97817 2.34938C3.56208 2.04039 2.99307 1.91167 2.45483 2.04629Z" fill="#B69121"/>
</svg>
