<svg width="18" height="19" viewBox="0 0 18 19" fill="none" xmlns="http://www.w3.org/2000/svg">
<path d="M0.5 5.5H17.5V15.76C17.5 16.4867 17.2113 17.1836 16.6975 17.6975C16.1836 18.2113 15.4867 18.5 14.76 18.5H3.24C2.51331 18.5 1.81638 18.2113 1.30253 17.6975C0.788678 17.1836 0.5 16.4867 0.5 15.76V5.5Z" stroke="white" stroke-linecap="round" stroke-linejoin="round"/>
<path d="M7.48 0.5H10.48C11.2756 0.5 12.0387 0.816071 12.6013 1.37868C13.1639 1.94129 13.48 2.70435 13.48 3.5V5.5H4.48V3.5C4.48 2.70435 4.79607 1.94129 5.35868 1.37868C5.92129 0.816071 6.68435 0.5 7.48 0.5Z" stroke="white" stroke-linecap="round" stroke-linejoin="round"/>
</svg>
