<svg width="18" height="17" viewBox="0 0 18 17" fill="none" xmlns="http://www.w3.org/2000/svg">
<path d="M4.9097 4.11542C3.11295 4.56732 2.04664 6.30062 2.52814 7.98739C3.03278 9.75522 4.58159 11.1533 6.79137 12.234C7.5455 12.6025 8.32784 12.8955 9.09148 13.1432C9.35897 13.2295 9.608 13.3061 9.8289 13.3666C9.96357 13.4035 10.0536 13.4321 10.1088 13.445C10.3141 13.4933 10.5483 13.4344 10.7003 13.2962C10.7413 13.2591 10.804 13.1921 10.9009 13.0969C11.06 12.9409 11.2349 12.7577 11.4206 12.5574C11.95 11.9845 12.4714 11.3636 12.9282 10.6905C14.2663 8.71747 14.8629 6.77979 14.3582 5.01196C13.8767 3.32519 12.03 2.32456 10.2332 2.77647C9.21278 3.03313 8.36543 3.80564 7.95636 4.72499C7.1242 4.10354 5.98618 3.84467 4.9097 4.11542Z" fill="#B69121"/>
</svg>
