<svg width="235" height="108" viewBox="0 0 235 108" fill="none" xmlns="http://www.w3.org/2000/svg">
<path d="M58.6825 85V83.592L62.9385 83.112H63.4825V85H58.6825ZM60.9865 85C61.0292 83.976 61.0505 82.9093 61.0505 81.8C61.0719 80.6907 61.0825 79.56 61.0825 78.408C61.0825 77.256 61.0825 76.1147 61.0825 74.984V73.928C61.0825 72.8187 61.0825 71.6987 61.0825 70.568C61.0825 69.416 61.0719 68.2853 61.0505 67.176C61.0505 66.0667 61.0292 65 60.9865 63.976H66.2345C66.2132 64.9787 66.1919 66.0347 66.1705 67.144C66.1492 68.2533 66.1385 69.384 66.1385 70.536C66.1385 71.6667 66.1385 72.7973 66.1385 73.928V74.888C66.1385 76.04 66.1385 77.192 66.1385 78.344C66.1385 79.496 66.1492 80.6373 66.1705 81.768C66.1919 82.8773 66.2132 83.9547 66.2345 85H60.9865ZM63.5785 85V83.464H67.1305C68.6239 83.464 69.7759 83.0907 70.5865 82.344C71.3972 81.5973 71.8025 80.5307 71.8025 79.144C71.8025 77.6293 71.4185 76.52 70.6505 75.816C69.8825 75.112 68.6985 74.76 67.0985 74.76H63.5785V73.32H66.9385C67.8345 73.32 68.5705 73.1707 69.1465 72.872C69.7439 72.552 70.1919 72.0933 70.4905 71.496C70.7892 70.8773 70.9385 70.12 70.9385 69.224C70.9385 68.392 70.7999 67.6987 70.5225 67.144C70.2452 66.5893 69.8292 66.184 69.2745 65.928C68.7412 65.6507 68.0585 65.512 67.2265 65.512H63.5785V63.976H68.3145C70.1705 63.976 71.6425 64.1893 72.7305 64.616C73.8185 65.0427 74.6079 65.6293 75.0985 66.376C75.5892 67.1227 75.8345 67.9653 75.8345 68.904C75.8345 69.736 75.6105 70.5147 75.1625 71.24C74.7145 71.944 73.9892 72.5413 72.9865 73.032C71.9839 73.5013 70.6079 73.8213 68.8585 73.992V73.736C70.7359 73.8213 72.2719 74.0987 73.4665 74.568C74.6612 75.016 75.5465 75.624 76.1225 76.392C76.6985 77.16 76.9865 78.0667 76.9865 79.112C76.9865 79.9013 76.8159 80.648 76.4745 81.352C76.1332 82.056 75.5785 82.6853 74.8105 83.24C74.0639 83.7733 73.0719 84.2 71.8345 84.52C70.6185 84.84 69.1359 85 67.3865 85H63.5785ZM58.6825 65.384V63.976H63.4825V65.864H62.9385L58.6825 65.384ZM76.9793 85V83.592L79.9553 83.144H80.5313L83.4113 83.592V85H76.9793ZM78.7713 85L85.8433 63.912H88.8833L95.9233 85H90.6433L85.2993 67.88H85.8753L85.7153 68.328L80.4033 85H78.7713ZM81.9073 78.632V77.064H91.1553V78.632H81.9073ZM87.6993 85V83.624L91.2833 83.144H93.6513L97.3313 83.624V85H87.6993ZM100.955 85C100.998 83.9973 101.019 82.9413 101.019 81.832C101.041 80.7227 101.051 79.6027 101.051 78.472C101.051 77.32 101.051 76.1893 101.051 75.08V73.832C101.051 72.7227 101.051 71.6133 101.051 70.504C101.051 69.3733 101.041 68.2533 101.019 67.144C101.019 66.0347 100.998 64.9787 100.955 63.976H106.107C106.086 64.9787 106.065 66.0347 106.043 67.144C106.022 68.232 106.001 69.3413 105.979 70.472C105.979 71.6027 105.979 72.7227 105.979 73.832V75.24C105.979 76.2853 105.979 77.3627 105.979 78.472C106.001 79.5813 106.022 80.6907 106.043 81.8C106.065 82.9093 106.086 83.976 106.107 85H100.955ZM98.6513 85V83.592L102.907 83.112H104.251L108.155 83.592V85H98.6513ZM98.6513 65.384V63.976H108.411V65.384L104.251 65.864H102.907L98.6513 65.384ZM110.235 85V83.592L114.171 83.112H115.419L119.259 83.592V85H110.235ZM111.099 65.384V63.976H118.267V65.384L114.747 65.864L114.011 65.896L111.099 65.384ZM103.547 80.168L103.451 77.96H103.739L104.891 76.52L114.843 63.976H116.891L103.547 80.168ZM112.635 85L107.451 74.376L110.587 70.44L118.203 85H112.635ZM120.401 85V83.592L124.657 83.112H125.681V85H120.401ZM122.705 85C122.748 83.9973 122.769 82.9413 122.769 81.832C122.791 80.7227 122.801 79.6027 122.801 78.472C122.801 77.32 122.801 76.1893 122.801 75.08V73.832C122.801 72.7227 122.801 71.6133 122.801 70.504C122.801 69.3733 122.791 68.2533 122.769 67.144C122.769 66.0347 122.748 64.9787 122.705 63.976H128.017C127.996 64.9787 127.975 66.0347 127.953 67.144C127.932 68.232 127.921 69.3413 127.921 70.472C127.921 71.6027 127.921 72.7227 127.921 73.832V74.984C127.921 76.1147 127.921 77.256 127.921 78.408C127.921 79.56 127.932 80.6907 127.953 81.8C127.975 82.9093 127.996 83.976 128.017 85H122.705ZM125.393 85V83.496H134.769L133.649 84.296L134.929 79.336H137.009L136.753 85H125.393ZM125.393 74.984V73.384H132.049V74.984H125.393ZM131.889 77.672L131.217 74.408V73.832L131.889 70.696H133.393V77.672H131.889ZM120.401 65.384V63.976H125.681V65.864H124.657L120.401 65.384ZM134.353 69.512L133.041 64.68L134.161 65.48H125.201V63.976H136.145L136.401 69.512H134.353ZM138.839 85V83.592L143.095 83.112H144.535L148.759 83.592V85H138.839ZM141.143 85C141.185 83.9973 141.207 82.9413 141.207 81.832C141.228 80.7227 141.239 79.6027 141.239 78.472C141.239 77.32 141.239 76.1893 141.239 75.08V73.832C141.239 72.7227 141.239 71.6133 141.239 70.504C141.239 69.3733 141.228 68.2533 141.207 67.144C141.207 66.0347 141.185 64.9787 141.143 63.976H146.391C146.369 64.9787 146.348 66.0347 146.327 67.144C146.305 68.232 146.295 69.3413 146.295 70.472C146.295 71.6027 146.295 72.744 146.295 73.896V74.984C146.295 76.1147 146.295 77.256 146.295 78.408C146.295 79.56 146.305 80.6907 146.327 81.8C146.348 82.9093 146.369 83.976 146.391 85H141.143ZM155.767 85.416C154.444 85.416 153.399 85.192 152.631 84.744C151.884 84.2747 151.404 83.4533 151.191 82.28L150.391 78.472C150.241 77.7467 150.049 77.1493 149.815 76.68C149.58 76.2107 149.26 75.8587 148.855 75.624C148.449 75.368 147.927 75.24 147.287 75.24H143.799V73.768H147.479C148.524 73.768 149.345 73.576 149.943 73.192C150.54 72.7867 150.956 72.2747 151.191 71.656C151.425 71.016 151.543 70.3227 151.543 69.576C151.543 68.2107 151.212 67.1973 150.551 66.536C149.889 65.8533 148.919 65.512 147.639 65.512H143.735V63.976H148.567C151.169 63.976 153.132 64.4453 154.455 65.384C155.777 66.3013 156.439 67.592 156.439 69.256C156.439 70.1093 156.172 70.9413 155.639 71.752C155.127 72.5413 154.295 73.2027 153.143 73.736C151.991 74.248 150.476 74.5467 148.599 74.632V74.344C149.9 74.3867 150.977 74.5147 151.831 74.728C152.684 74.9413 153.377 75.2507 153.911 75.656C154.444 76.0613 154.849 76.5627 155.127 77.16C155.425 77.7573 155.671 78.4613 155.863 79.272L157.111 84.456L154.807 83.08L159.127 83.592V85C158.679 85.1067 158.284 85.1813 157.943 85.224C157.601 85.288 157.26 85.3307 156.919 85.352C156.599 85.3947 156.215 85.416 155.767 85.416ZM138.839 65.384V63.976H144.119V65.864H143.095L138.839 65.384ZM162.237 85V83.592L166.557 83.112H168.285L172.701 83.592V85H162.237ZM164.797 85C164.818 84.2533 164.829 83.5387 164.829 82.856C164.85 82.152 164.861 81.4373 164.861 80.712C164.882 79.9653 164.893 79.1547 164.893 78.28C164.893 77.384 164.893 76.3707 164.893 75.24H170.013C170.013 76.3707 170.013 77.3733 170.013 78.248C170.013 79.1227 170.013 79.9333 170.013 80.68C170.034 81.4053 170.045 82.12 170.045 82.824C170.066 83.5067 170.087 84.232 170.109 85H164.797ZM165.693 78.312L158.877 63.976H164.669L169.629 75.24H168.797L169.021 74.824L173.853 63.976H175.677L168.861 78.312H165.693ZM157.949 65.384V63.976H167.773V65.384L163.869 65.864H162.141L157.949 65.384ZM170.813 65.384V63.976H177.053V65.384L174.365 65.8H173.629L170.813 65.384Z" fill="#B69121"/>
<path d="M80.7188 60.576C79.2468 60.576 77.8601 60.352 76.5588 59.904C75.2574 59.456 74.1054 58.784 73.1028 57.888C72.1214 56.992 71.3428 55.8613 70.7668 54.496C70.2121 53.1307 69.9348 51.5307 69.9348 49.696C69.9348 47.7547 70.2334 46.0693 70.8308 44.64C71.4281 43.2107 72.2388 42.0373 73.2628 41.12C74.2868 40.2027 75.4494 39.52 76.7508 39.072C78.0734 38.624 79.4494 38.4 80.8788 38.4C81.9881 38.4 83.0334 38.528 84.0148 38.784C84.9961 39.0187 85.9241 39.392 86.7988 39.904L86.9908 44.896H85.1028L83.5668 39.712L85.6148 40.224L85.6468 41.664C84.9214 41.0453 84.2174 40.5973 83.5348 40.32C82.8521 40.0427 82.1694 39.904 81.4868 39.904C80.3988 39.904 79.3854 40.2453 78.4468 40.928C77.5081 41.5893 76.7508 42.624 76.1748 44.032C75.6201 45.44 75.3428 47.264 75.3428 49.504C75.3428 51.744 75.6094 53.568 76.1428 54.976C76.6974 56.384 77.4334 57.4187 78.3508 58.08C79.2894 58.72 80.2921 59.04 81.3588 59.04C82.1054 59.04 82.8628 58.9013 83.6308 58.624C84.3988 58.3253 85.1348 57.8987 85.8388 57.344L85.8068 58.72L83.7588 59.232L85.2628 53.984H87.1828L86.9908 59.04C86.1801 59.5093 85.2414 59.8827 84.1748 60.16C83.1081 60.4373 81.9561 60.576 80.7188 60.576ZM89.2138 60V58.592L93.4698 58.112H94.9098L99.1338 58.592V60H89.2138ZM91.5178 60C91.5604 58.9973 91.5818 57.9413 91.5818 56.832C91.6031 55.7227 91.6138 54.6027 91.6138 53.472C91.6138 52.32 91.6138 51.1893 91.6138 50.08V48.832C91.6138 47.7227 91.6138 46.6133 91.6138 45.504C91.6138 44.3733 91.6031 43.2533 91.5818 42.144C91.5818 41.0347 91.5604 39.9787 91.5178 38.976H96.7658C96.7444 39.9787 96.7231 41.0347 96.7018 42.144C96.6804 43.232 96.6698 44.3413 96.6698 45.472C96.6698 46.6027 96.6698 47.744 96.6698 48.896V49.984C96.6698 51.1147 96.6698 52.256 96.6698 53.408C96.6698 54.56 96.6804 55.6907 96.7018 56.8C96.7231 57.9093 96.7444 58.976 96.7658 60H91.5178ZM106.142 60.416C104.819 60.416 103.774 60.192 103.006 59.744C102.259 59.2747 101.779 58.4533 101.566 57.28L100.766 53.472C100.616 52.7467 100.424 52.1493 100.19 51.68C99.9551 51.2107 99.6351 50.8587 99.2298 50.624C98.8244 50.368 98.3018 50.24 97.6618 50.24H94.1738V48.768H97.8538C98.8991 48.768 99.7204 48.576 100.318 48.192C100.915 47.7867 101.331 47.2747 101.566 46.656C101.8 46.016 101.918 45.3227 101.918 44.576C101.918 43.2107 101.587 42.1973 100.926 41.536C100.264 40.8533 99.2938 40.512 98.0138 40.512H94.1098V38.976H98.9418C101.544 38.976 103.507 39.4453 104.83 40.384C106.152 41.3013 106.814 42.592 106.814 44.256C106.814 45.1093 106.547 45.9413 106.014 46.752C105.502 47.5413 104.67 48.2027 103.518 48.736C102.366 49.248 100.851 49.5467 98.9738 49.632V49.344C100.275 49.3867 101.352 49.5147 102.206 49.728C103.059 49.9413 103.752 50.2507 104.286 50.656C104.819 51.0613 105.224 51.5627 105.502 52.16C105.8 52.7573 106.046 53.4613 106.238 54.272L107.486 59.456L105.182 58.08L109.502 58.592V60C109.054 60.1067 108.659 60.1813 108.318 60.224C107.976 60.288 107.635 60.3307 107.294 60.352C106.974 60.3947 106.59 60.416 106.142 60.416ZM89.2138 40.384V38.976H94.4938V40.864H93.4698L89.2138 40.384ZM119.36 60.576C117.824 60.576 116.448 60.3093 115.232 59.776C114.016 59.2427 113.056 58.3787 112.352 57.184C111.669 55.968 111.328 54.3573 111.328 52.352V48.64C111.328 47.552 111.328 46.464 111.328 45.376C111.328 44.2667 111.317 43.168 111.296 42.08C111.296 40.992 111.275 39.9573 111.232 38.976H116.544C116.523 39.9573 116.501 40.992 116.48 42.08C116.459 43.1467 116.448 44.2347 116.448 45.344C116.448 46.4533 116.448 47.552 116.448 48.64V51.392C116.448 52.9707 116.608 54.24 116.928 55.2C117.269 56.1387 117.771 56.8213 118.432 57.248C119.115 57.6747 119.947 57.888 120.928 57.888C121.888 57.888 122.709 57.6747 123.392 57.248C124.075 56.8 124.597 56.096 124.96 55.136C125.344 54.1547 125.536 52.8853 125.536 51.328V38.976H127.296V51.168C127.296 53.3867 126.976 55.1893 126.336 56.576C125.717 57.9627 124.821 58.976 123.648 59.616C122.475 60.256 121.045 60.576 119.36 60.576ZM109.056 40.384V38.976H118.976V40.384L114.656 40.864H113.344L109.056 40.384ZM122.816 40.384V38.976H129.76V40.384L126.752 40.672H125.952L122.816 40.384ZM137.715 60.576C136.563 60.576 135.4 60.4267 134.227 60.128C133.075 59.8507 132.04 59.4453 131.123 58.912L131.347 54.08H133.619L134.803 59.424L132.595 58.592V57.408C133.214 57.7707 133.79 58.0693 134.323 58.304C134.856 58.5387 135.39 58.72 135.923 58.848C136.456 58.9547 137.043 59.008 137.683 59.008C138.43 59.008 139.07 58.8693 139.603 58.592C140.158 58.2933 140.584 57.8987 140.883 57.408C141.182 56.896 141.331 56.3093 141.331 55.648C141.331 55.0293 141.214 54.5173 140.979 54.112C140.744 53.6853 140.403 53.312 139.955 52.992C139.507 52.6507 138.952 52.3307 138.291 52.032L137.075 51.456C135.966 50.9227 134.984 50.3467 134.131 49.728C133.299 49.1093 132.648 48.384 132.179 47.552C131.71 46.72 131.475 45.7173 131.475 44.544C131.475 43.2853 131.784 42.1973 132.403 41.28C133.043 40.3627 133.928 39.6587 135.059 39.168C136.211 38.656 137.576 38.4 139.155 38.4C140.264 38.4 141.31 38.5493 142.291 38.848C143.294 39.1253 144.158 39.5093 144.883 40L144.659 44.576H142.387L141.235 39.52L143.539 40.352L143.571 41.76C142.782 41.1627 142.056 40.7147 141.395 40.416C140.755 40.1173 140.04 39.968 139.251 39.968C138.632 39.968 138.056 40.096 137.523 40.352C137.011 40.608 136.595 40.9707 136.275 41.44C135.955 41.9093 135.795 42.4747 135.795 43.136C135.795 43.7333 135.923 44.256 136.179 44.704C136.456 45.1307 136.83 45.5147 137.299 45.856C137.768 46.1973 138.323 46.528 138.963 46.848L140.307 47.456C141.502 48.0107 142.504 48.5973 143.315 49.216C144.147 49.8133 144.766 50.5067 145.171 51.296C145.598 52.0853 145.811 53.0347 145.811 54.144C145.811 55.4027 145.512 56.512 144.915 57.472C144.318 58.432 143.422 59.1893 142.227 59.744C141.032 60.2987 139.528 60.576 137.715 60.576ZM150.987 60V58.592L155.339 58.112H157.067L161.483 58.592V60H150.987ZM153.547 60C153.589 58.9973 153.621 57.9413 153.643 56.832C153.664 55.7227 153.675 54.6027 153.675 53.472C153.675 52.32 153.675 51.1893 153.675 50.08V48.832C153.675 47.7227 153.675 46.6133 153.675 45.504C153.675 44.3733 153.664 43.2533 153.643 42.144C153.643 41.0347 153.621 39.9787 153.579 38.976H158.891C158.869 39.9787 158.848 41.0347 158.827 42.144C158.805 43.232 158.784 44.3413 158.763 45.472C158.763 46.6027 158.763 47.7227 158.763 48.832V50.048C158.763 51.1573 158.763 52.288 158.763 53.44C158.784 54.5707 158.805 55.6907 158.827 56.8C158.848 57.9093 158.869 58.976 158.891 60H153.547ZM146.987 44.992L147.179 38.976H165.291L165.483 44.992H163.403L162.091 39.072L164.043 40.48H148.427L150.379 39.072L149.067 44.992H146.987Z" fill="#B69121"/>
<path d="M67.9837 33.576C66.4263 33.576 64.9863 33.3413 63.6637 32.872C62.3623 32.4027 61.2317 31.7093 60.2717 30.792C59.3117 29.8533 58.565 28.7013 58.0317 27.336C57.4983 25.9707 57.2317 24.392 57.2317 22.6C57.2317 20.808 57.4983 19.2187 58.0317 17.832C58.565 16.4453 59.3117 15.272 60.2717 14.312C61.253 13.352 62.4263 12.6267 63.7917 12.136C65.157 11.6453 66.6717 11.4 68.3357 11.4C68.997 11.4 69.669 11.4533 70.3517 11.56C71.0557 11.6667 71.7383 11.8267 72.3997 12.04C73.061 12.232 73.6797 12.488 74.2557 12.808L74.4797 17.832H72.5277L70.9597 12.616L73.0717 13.064L73.1037 14.536C72.357 13.9387 71.6317 13.5227 70.9277 13.288C70.245 13.032 69.5623 12.904 68.8797 12.904C67.749 12.904 66.7143 13.2453 65.7757 13.928C64.837 14.5893 64.0797 15.6347 63.5037 17.064C62.9277 18.472 62.6397 20.2747 62.6397 22.472C62.6397 24.6693 62.9063 26.4827 63.4397 27.912C63.9943 29.32 64.7303 30.3653 65.6477 31.048C66.5863 31.7093 67.621 32.04 68.7517 32.04C69.349 32.04 69.893 31.9653 70.3837 31.816C70.8743 31.6667 71.4183 31.432 72.0157 31.112L70.0957 32.776V30.344C70.0957 29.0213 70.085 27.7307 70.0637 26.472C70.0637 25.2133 70.0317 23.9333 69.9677 22.632H75.0237C74.981 23.8907 74.949 25.1707 74.9277 26.472C74.9063 27.752 74.8957 29.064 74.8957 30.408V31.784C73.8503 32.4027 72.7623 32.8507 71.6317 33.128C70.501 33.4267 69.285 33.576 67.9837 33.576ZM67.4077 24.04V22.632H76.5277V24.04L73.0077 24.52H71.1837L67.4077 24.04ZM88.4009 33.576C87.1209 33.576 85.8836 33.352 84.6889 32.904C83.5156 32.4347 82.4596 31.7413 81.5209 30.824C80.6036 29.9067 79.8676 28.7547 79.3129 27.368C78.7796 25.9813 78.5129 24.3493 78.5129 22.472C78.5129 20.6373 78.7796 19.0267 79.3129 17.64C79.8676 16.2533 80.6036 15.1013 81.5209 14.184C82.4596 13.2667 83.5156 12.5733 84.6889 12.104C85.8836 11.6347 87.1209 11.4 88.4009 11.4C89.6809 11.4 90.9076 11.6347 92.0809 12.104C93.2542 12.552 94.2996 13.2347 95.2169 14.152C96.1556 15.0693 96.8916 16.2213 97.4249 17.608C97.9796 18.9947 98.2569 20.6267 98.2569 22.504C98.2569 24.3387 97.9796 25.9493 97.4249 27.336C96.8916 28.7227 96.1662 29.8853 95.2489 30.824C94.3316 31.7413 93.2756 32.4347 92.0809 32.904C90.9076 33.352 89.6809 33.576 88.4009 33.576ZM88.4009 32.008C89.1902 32.008 89.8622 31.784 90.4169 31.336C90.9929 30.8667 91.4516 30.2053 91.7929 29.352C92.1556 28.4987 92.4116 27.4853 92.5609 26.312C92.7316 25.1387 92.8169 23.8587 92.8169 22.472C92.8169 21.1067 92.7316 19.848 92.5609 18.696C92.4116 17.5227 92.1556 16.5093 91.7929 15.656C91.4516 14.7813 90.9929 14.1093 90.4169 13.64C89.8622 13.1707 89.1902 12.936 88.4009 12.936C87.5902 12.936 86.8969 13.1707 86.3209 13.64C85.7662 14.1093 85.3076 14.7707 84.9449 15.624C84.6036 16.4773 84.3476 17.4907 84.1769 18.664C84.0276 19.816 83.9529 21.0853 83.9529 22.472C83.9529 23.8587 84.0276 25.1387 84.1769 26.312C84.3476 27.464 84.6036 28.4773 84.9449 29.352C85.3076 30.2053 85.7662 30.8667 86.3209 31.336C86.8969 31.784 87.5902 32.008 88.4009 32.008ZM99.8857 33V31.592L104.142 31.112H105.166V33H99.8857ZM102.19 33C102.232 31.9973 102.254 30.952 102.254 29.864C102.275 28.7547 102.286 27.6667 102.286 26.6C102.286 25.512 102.286 24.488 102.286 23.528V21.832C102.286 20.7227 102.286 19.6133 102.286 18.504C102.286 17.3733 102.275 16.2533 102.254 15.144C102.254 14.0347 102.232 12.9787 102.19 11.976H107.502C107.48 12.9787 107.459 14.0347 107.438 15.144C107.416 16.232 107.406 17.3413 107.406 18.472C107.406 19.6027 107.406 20.7227 107.406 21.832V23.432C107.406 24.4133 107.406 25.448 107.406 26.536C107.406 27.624 107.416 28.7227 107.438 29.832C107.459 30.92 107.48 31.976 107.502 33H102.19ZM104.878 33V31.464H113.838L112.686 32.264L114.158 26.664H116.174L115.822 33H104.878ZM99.8857 13.384V11.976H109.966V13.384L105.646 13.864H104.142L99.8857 13.384ZM117.667 33V31.592L121.923 31.112H122.467V33H117.667ZM119.971 33C120.014 31.9973 120.035 30.9413 120.035 29.832C120.056 28.7227 120.067 27.592 120.067 26.44C120.067 25.288 120.067 24.136 120.067 22.984V21.832C120.067 20.7227 120.067 19.6133 120.067 18.504C120.067 17.3733 120.056 16.2533 120.035 15.144C120.035 14.0347 120.014 12.9787 119.971 11.976H125.283C125.262 12.9787 125.24 14.0347 125.219 15.144C125.198 16.232 125.187 17.3413 125.187 18.472C125.187 19.6027 125.187 20.7227 125.187 21.832V22.984C125.187 24.1147 125.187 25.256 125.187 26.408C125.187 27.56 125.198 28.6907 125.219 29.8C125.24 30.9093 125.262 31.976 125.283 33H119.971ZM122.787 33V31.464H126.307C127.523 31.464 128.568 31.112 129.443 30.408C130.339 29.6827 131.022 28.648 131.491 27.304C131.96 25.96 132.195 24.3493 132.195 22.472C132.195 19.5707 131.672 17.352 130.627 15.816C129.582 14.28 128.163 13.512 126.371 13.512H122.787V11.976H126.787C129.048 11.976 130.979 12.4027 132.579 13.256C134.179 14.088 135.395 15.2827 136.227 16.84C137.08 18.376 137.507 20.232 137.507 22.408C137.507 24.6267 137.048 26.5253 136.131 28.104C135.235 29.6827 133.955 30.8987 132.291 31.752C130.627 32.584 128.664 33 126.403 33H122.787ZM117.667 13.384V11.976H122.467V13.864H121.923L117.667 13.384ZM138.979 33V31.592L143.235 31.112H144.259V33H138.979ZM141.283 33C141.326 31.9973 141.347 30.9413 141.347 29.832C141.369 28.7227 141.379 27.6027 141.379 26.472C141.379 25.32 141.379 24.1893 141.379 23.08V21.832C141.379 20.7227 141.379 19.6133 141.379 18.504C141.379 17.3733 141.369 16.2533 141.347 15.144C141.347 14.0347 141.326 12.9787 141.283 11.976H146.595C146.574 12.9787 146.553 14.0347 146.531 15.144C146.51 16.232 146.499 17.3413 146.499 18.472C146.499 19.6027 146.499 20.7227 146.499 21.832V22.984C146.499 24.1147 146.499 25.256 146.499 26.408C146.499 27.56 146.51 28.6907 146.531 29.8C146.553 30.9093 146.574 31.976 146.595 33H141.283ZM143.971 33V31.496H153.347L152.227 32.296L153.507 27.336H155.587L155.331 33H143.971ZM143.971 22.984V21.384H150.627V22.984H143.971ZM150.467 25.672L149.795 22.408V21.832L150.467 18.696H151.971V25.672H150.467ZM138.979 13.384V11.976H144.259V13.864H143.235L138.979 13.384ZM152.931 17.512L151.619 12.68L152.739 13.48H143.779V11.976H154.723L154.979 17.512H152.931ZM157.321 33V31.592L160.425 31.144H161.289L164.969 31.592V33H157.321ZM159.913 33V12.712H161.641V22.472V33H159.913ZM170.249 13.384V11.976H177.897V13.384L174.953 13.8H174.121L170.249 13.384ZM172.905 33.064L161.353 16.072H161.257L159.593 13.608L157.513 13.384V11.976H164.489L174.217 26.152L173.641 26.28V21.544V11.976H175.369V33.064H172.905Z" fill="#B69121"/>
<path d="M23.6442 31.9223C19.7488 32.902 17.437 36.6598 18.481 40.3167C19.575 44.1494 22.9329 47.1805 27.7237 49.5235C29.3587 50.3224 31.0548 50.9576 32.7104 51.4946C33.2903 51.6816 33.8302 51.8478 34.3091 51.9789C34.6011 52.059 34.7962 52.1209 34.9159 52.1488C35.3609 52.2536 35.8687 52.1259 36.1983 51.8263C36.2871 51.7459 36.4231 51.6007 36.6333 51.3943C36.9782 51.056 37.3573 50.6587 37.7599 50.2246C38.9076 48.9825 40.0381 47.6364 41.0285 46.1771C43.9294 41.8996 45.2228 37.6987 44.1287 33.866C43.0848 30.209 39.0811 28.0397 35.1857 29.0194C32.9733 29.5759 31.1363 31.2507 30.2494 33.2438C28.4453 31.8965 25.978 31.3353 23.6442 31.9223Z" fill="#B69121"/>
<path d="M44.9406 45.4139C43.1724 45.8586 42.123 47.5644 42.5969 49.2244C43.0935 50.9641 44.6177 52.34 46.7924 53.4036C47.5346 53.7662 48.3045 54.0546 49.056 54.2983C49.3193 54.3832 49.5643 54.4586 49.7817 54.5182C49.9143 54.5545 50.0028 54.5826 50.0572 54.5953C50.2592 54.6429 50.4897 54.5849 50.6393 54.4489C50.6796 54.4124 50.7413 54.3465 50.8368 54.2528C50.9933 54.0992 51.1654 53.9189 51.3482 53.7218C51.8691 53.158 52.3823 52.547 52.8319 51.8846C54.1487 49.9429 54.7358 48.0359 54.2392 46.2962C53.7653 44.6362 51.9479 43.6515 50.1797 44.0962C49.1754 44.3488 48.3415 45.109 47.9389 46.0138C47.12 45.4022 46 45.1474 44.9406 45.4139Z" fill="#B69121"/>
<path d="M8.00464 104.024C7.83664 104.024 7.69264 103.924 7.57264 103.724C7.45264 103.524 7.39264 103.124 7.39264 102.524C7.39264 101.972 7.43264 101.28 7.51264 100.448C7.60064 99.608 7.72864 98.68 7.89664 97.664C7.98464 97.2 8.14864 96.816 8.38864 96.512C8.63664 96.208 8.95664 95.952 9.34864 95.744C9.74864 95.536 10.2166 95.352 10.7526 95.192C11.2886 95.032 11.8406 94.888 12.4086 94.76C12.9846 94.624 13.5246 94.516 14.0286 94.436C14.5406 94.348 14.9606 94.304 15.2886 94.304C15.5206 94.304 15.6966 94.352 15.8166 94.448C15.9366 94.544 15.9966 94.644 15.9966 94.748C15.9966 94.844 15.9686 94.928 15.9126 95C15.8646 95.064 15.7686 95.116 15.6246 95.156C15.5206 95.188 15.3006 95.244 14.9646 95.324C14.6366 95.396 14.2326 95.484 13.7526 95.588C13.2806 95.692 12.7806 95.804 12.2526 95.924C11.7246 96.036 11.2126 96.152 10.7166 96.272C10.1486 96.432 9.73664 96.636 9.48064 96.884C9.23264 97.124 9.06864 97.464 8.98864 97.904C8.97264 98.016 8.94864 98.18 8.91664 98.396C9.14064 98.308 9.42064 98.212 9.75664 98.108C10.0926 98.004 10.4366 97.904 10.7886 97.808C11.1406 97.712 11.4646 97.636 11.7606 97.58C12.0566 97.516 12.2766 97.484 12.4206 97.484C12.5246 97.484 12.6326 97.548 12.7446 97.676C12.8646 97.804 12.9246 97.936 12.9246 98.072C12.9246 98.136 12.9046 98.2 12.8646 98.264C12.8246 98.32 12.7566 98.364 12.6606 98.396C12.6046 98.412 12.4646 98.452 12.2406 98.516C12.0246 98.572 11.7606 98.644 11.4486 98.732C11.1446 98.82 10.8246 98.916 10.4886 99.02C10.1526 99.116 9.83264 99.208 9.52864 99.296C9.23264 99.384 8.98464 99.46 8.78464 99.524C8.74464 99.908 8.70064 100.308 8.65264 100.724C8.60464 101.14 8.56064 101.536 8.52064 101.912C8.48864 102.28 8.46064 102.596 8.43664 102.86C8.41264 103.116 8.40064 103.28 8.40064 103.352C8.40064 103.8 8.26864 104.024 8.00464 104.024ZM15.0575 104.228C14.9295 104.228 14.8215 104.176 14.7335 104.072C14.6455 103.968 14.6015 103.824 14.6015 103.64C14.6015 103.504 14.6295 103.28 14.6855 102.968C14.7495 102.648 14.8175 102.276 14.8895 101.852C14.9695 101.428 15.0375 100.988 15.0935 100.532C15.1495 100.068 15.1775 99.624 15.1775 99.2C15.1775 98.992 15.2295 98.84 15.3335 98.744C15.4455 98.64 15.5695 98.588 15.7055 98.588C15.8335 98.588 15.9295 98.668 15.9935 98.828C16.0575 98.988 16.0695 99.308 16.0295 99.788C16.3975 98.972 16.8015 98.316 17.2415 97.82C17.6895 97.316 18.1335 96.956 18.5735 96.74C19.0135 96.516 19.4095 96.404 19.7615 96.404C19.9935 96.404 20.1615 96.452 20.2655 96.548C20.3775 96.636 20.4335 96.736 20.4335 96.848C20.4335 97 20.3695 97.12 20.2415 97.208C20.1215 97.288 19.9095 97.384 19.6055 97.496C19.2535 97.632 18.9295 97.792 18.6335 97.976C18.3455 98.152 18.0695 98.384 17.8055 98.672C17.5495 98.96 17.2975 99.328 17.0495 99.776C16.8015 100.216 16.5535 100.76 16.3055 101.408C16.0575 102.056 15.7935 102.836 15.5135 103.748C15.4655 103.924 15.4015 104.048 15.3215 104.12C15.2495 104.192 15.1615 104.228 15.0575 104.228ZM24.6568 98.828C24.6568 99.084 24.5768 99.336 24.4168 99.584C24.2568 99.824 24.0448 100.056 23.7808 100.28C23.5168 100.496 23.2248 100.7 22.9048 100.892C22.5848 101.084 22.2648 101.252 21.9448 101.396C21.6248 101.54 21.3328 101.656 21.0688 101.744C21.0048 102.056 20.9728 102.332 20.9728 102.572C20.9728 102.724 21.0088 102.832 21.0808 102.896C21.1528 102.96 21.2648 102.992 21.4168 102.992C21.7528 102.992 22.1088 102.932 22.4848 102.812C22.8608 102.692 23.2448 102.536 23.6368 102.344C24.0288 102.152 24.4048 101.948 24.7648 101.732C25.1248 101.516 25.4528 101.312 25.7488 101.12C26.0528 100.928 26.3048 100.772 26.5048 100.652C26.7048 100.532 26.8368 100.472 26.9008 100.472C26.9968 100.472 27.0688 100.504 27.1168 100.568C27.1728 100.624 27.2008 100.692 27.2008 100.772C27.2008 100.836 27.1008 100.96 26.9008 101.144C26.7088 101.328 26.4488 101.544 26.1208 101.792C25.7928 102.032 25.4248 102.28 25.0168 102.536C24.6088 102.792 24.1848 103.032 23.7448 103.256C23.3128 103.48 22.8928 103.66 22.4848 103.796C22.0848 103.932 21.7248 104 21.4048 104C20.9888 104 20.6648 103.844 20.4328 103.532C20.2008 103.22 20.0848 102.736 20.0848 102.08C20.0848 101.64 20.1408 101.196 20.2528 100.748C20.3728 100.3 20.5328 99.872 20.7328 99.464C20.9408 99.048 21.1688 98.68 21.4168 98.36C21.6728 98.032 21.9408 97.776 22.2208 97.592C22.5008 97.4 22.7728 97.304 23.0368 97.304C23.5408 97.304 23.9368 97.444 24.2248 97.724C24.5128 98.004 24.6568 98.372 24.6568 98.828ZM21.3208 100.82C21.5688 100.668 21.8248 100.508 22.0888 100.34C22.3528 100.172 22.5968 100 22.8208 99.824C23.0448 99.648 23.2248 99.464 23.3608 99.272C23.5048 99.072 23.5768 98.868 23.5768 98.66C23.5768 98.364 23.4168 98.216 23.0968 98.216C22.8968 98.216 22.6848 98.344 22.4608 98.6C22.2448 98.848 22.0368 99.172 21.8368 99.572C21.6368 99.972 21.4648 100.388 21.3208 100.82ZM28.0055 104.264C27.8295 104.264 27.6935 104.212 27.5975 104.108C27.5095 104.012 27.4655 103.9 27.4655 103.772C27.4655 103.66 27.5135 103.556 27.6095 103.46C27.7135 103.356 27.8535 103.264 28.0295 103.184C28.3495 103.016 28.6495 102.848 28.9295 102.68C29.2175 102.512 29.4495 102.332 29.6255 102.14C29.8015 101.948 29.8895 101.744 29.8895 101.528C29.8895 101.344 29.8295 101.204 29.7095 101.108C29.5895 101.004 29.4255 100.952 29.2175 100.952C29.0975 100.952 28.9295 100.976 28.7135 101.024C28.4975 101.064 28.2615 101.112 28.0055 101.168C27.7575 101.216 27.5135 101.264 27.2735 101.312C27.0335 101.352 26.8295 101.372 26.6615 101.372C26.3575 101.372 26.1295 101.3 25.9775 101.156C25.8255 101.004 25.7495 100.8 25.7495 100.544C25.7495 100.416 25.8255 100.224 25.9775 99.968C26.1295 99.712 26.3295 99.428 26.5775 99.116C26.8335 98.796 27.1135 98.476 27.4175 98.156C27.7215 97.836 28.0295 97.54 28.3415 97.268C28.6615 96.996 28.9575 96.776 29.2295 96.608C29.5095 96.44 29.7415 96.356 29.9255 96.356C30.1095 96.356 30.2495 96.416 30.3455 96.536C30.4415 96.656 30.4895 96.808 30.4895 96.992C30.4895 97.136 30.4655 97.26 30.4175 97.364C30.3695 97.46 30.2695 97.536 30.1175 97.592C29.9735 97.648 29.7495 97.68 29.4455 97.688C29.1335 97.936 28.8015 98.22 28.4495 98.54C28.1055 98.852 27.7895 99.176 27.5015 99.512C27.2215 99.84 27.0175 100.156 26.8895 100.46C27.1535 100.372 27.4735 100.296 27.8495 100.232C28.2335 100.16 28.6215 100.124 29.0135 100.124C29.6295 100.124 30.0855 100.264 30.3815 100.544C30.6855 100.816 30.8375 101.176 30.8375 101.624C30.8375 101.912 30.7455 102.212 30.5615 102.524C30.3855 102.828 30.1535 103.112 29.8655 103.376C29.5775 103.64 29.2695 103.852 28.9415 104.012C28.6135 104.18 28.3015 104.264 28.0055 104.264ZM32.6651 104.54C32.4891 104.54 32.3531 104.488 32.2571 104.384C32.1611 104.288 32.1131 104.044 32.1131 103.652C32.1131 103.292 32.1771 102.824 32.3051 102.248C32.4331 101.664 32.6051 101.016 32.8211 100.304C33.0371 99.592 33.2811 98.856 33.5531 98.096C33.8251 97.328 34.1091 96.576 34.4051 95.84C34.7091 95.096 35.0011 94.416 35.2811 93.8C35.3851 93.576 35.4931 93.42 35.6051 93.332C35.7171 93.244 35.8491 93.2 36.0011 93.2C36.1051 93.2 36.1931 93.232 36.2651 93.296C36.3451 93.352 36.3851 93.448 36.3851 93.584C36.3851 93.632 36.3331 93.788 36.2291 94.052C36.1331 94.316 35.9971 94.664 35.8211 95.096C35.6531 95.528 35.4651 96.012 35.2571 96.548C35.0491 97.084 34.8371 97.648 34.6211 98.24C34.4051 98.832 34.2011 99.428 34.0091 100.028C33.8171 100.62 33.6531 101.188 33.5171 101.732C33.3811 102.276 33.2891 102.764 33.2411 103.196C33.4331 102.964 33.6531 102.668 33.9011 102.308C34.1491 101.948 34.4131 101.56 34.6931 101.144C34.9731 100.728 35.2571 100.316 35.5451 99.908C35.8331 99.5 36.1171 99.128 36.3971 98.792C36.6771 98.456 36.9371 98.188 37.1771 97.988C37.4251 97.78 37.6411 97.676 37.8251 97.676C38.1291 97.676 38.3731 97.772 38.5571 97.964C38.7491 98.148 38.8451 98.452 38.8451 98.876C38.8451 99.116 38.7971 99.404 38.7011 99.74C38.6131 100.076 38.5091 100.428 38.3891 100.796C38.2691 101.164 38.1611 101.516 38.0651 101.852C37.9771 102.188 37.9331 102.476 37.9331 102.716C37.9331 103.044 38.0571 103.208 38.3051 103.208C38.6891 103.208 39.0731 103.124 39.4571 102.956C39.8491 102.788 40.2211 102.58 40.5731 102.332C40.9251 102.076 41.2491 101.82 41.5451 101.564C41.8411 101.3 42.0931 101.076 42.3011 100.892C42.5251 100.692 42.7131 100.592 42.8651 100.592C43.0571 100.592 43.1531 100.692 43.1531 100.892C43.1531 100.948 43.1411 101.012 43.1171 101.084C43.0931 101.156 43.0291 101.248 42.9251 101.36C42.7971 101.504 42.6131 101.692 42.3731 101.924C42.1411 102.156 41.8691 102.404 41.5571 102.668C41.2531 102.932 40.9211 103.18 40.5611 103.412C40.2091 103.644 39.8451 103.836 39.4691 103.988C39.1011 104.132 38.7411 104.204 38.3891 104.204C37.9091 104.204 37.5371 104.068 37.2731 103.796C37.0171 103.516 36.8891 103.132 36.8891 102.644C36.8891 102.34 36.9371 101.972 37.0331 101.54C37.1291 101.108 37.2491 100.652 37.3931 100.172C37.5451 99.684 37.6971 99.208 37.8491 98.744C37.5931 98.92 37.3131 99.184 37.0091 99.536C36.7131 99.88 36.4011 100.272 36.0731 100.712C35.7451 101.144 35.4171 101.584 35.0891 102.032C34.7691 102.48 34.4571 102.896 34.1531 103.28C33.8571 103.656 33.5811 103.96 33.3251 104.192C33.0691 104.424 32.8491 104.54 32.6651 104.54ZM44.5698 104.48C43.9538 104.48 43.4698 104.28 43.1178 103.88C42.7738 103.472 42.6018 102.904 42.6018 102.176C42.6018 101.728 42.6618 101.204 42.7818 100.604C42.9098 99.996 43.0698 99.356 43.2618 98.684C43.4618 98.004 43.6778 97.332 43.9098 96.668C44.1418 96.004 44.3658 95.388 44.5818 94.82C44.8058 94.244 45.0018 93.764 45.1698 93.38C45.2658 93.164 45.4018 93.056 45.5778 93.056C45.8178 93.056 45.9378 93.204 45.9378 93.5C45.9378 93.596 45.8938 93.792 45.8058 94.088C45.7178 94.384 45.6018 94.752 45.4578 95.192C45.3138 95.624 45.1578 96.104 44.9898 96.632C44.8218 97.16 44.6498 97.704 44.4738 98.264C44.3058 98.816 44.1498 99.364 44.0058 99.908C43.8618 100.444 43.7458 100.948 43.6578 101.42C43.5698 101.892 43.5258 102.296 43.5258 102.632C43.5258 102.848 43.5818 103.02 43.6938 103.148C43.8138 103.268 43.9738 103.328 44.1738 103.328C44.5418 103.328 44.9098 103.256 45.2778 103.112C45.6538 102.96 46.0138 102.776 46.3578 102.56C46.7018 102.336 47.0138 102.116 47.2938 101.9C47.5818 101.676 47.8258 101.492 48.0258 101.348C48.2258 101.196 48.3658 101.12 48.4458 101.12C48.6218 101.12 48.7098 101.216 48.7098 101.408C48.7098 101.472 48.6458 101.592 48.5178 101.768C48.3898 101.936 48.2178 102.136 48.0018 102.368C47.7858 102.6 47.5338 102.84 47.2458 103.088C46.9658 103.328 46.6698 103.556 46.3578 103.772C46.0538 103.98 45.7458 104.148 45.4338 104.276C45.1298 104.412 44.8418 104.48 44.5698 104.48ZM49.6099 107.084C49.2099 107.084 48.8419 107.056 48.5059 107C48.1779 106.952 47.8539 106.872 47.5339 106.76C47.2139 106.656 46.8659 106.52 46.4899 106.352C46.3779 106.296 46.2779 106.228 46.1899 106.148C46.1019 106.076 46.0579 105.992 46.0579 105.896C46.0579 105.776 46.1339 105.648 46.2859 105.512C46.4299 105.384 46.5659 105.32 46.6939 105.32C46.8299 105.32 46.9979 105.368 47.1979 105.464C47.4059 105.56 47.6459 105.672 47.9179 105.8C48.1899 105.936 48.4899 106.052 48.8179 106.148C49.1539 106.244 49.5139 106.292 49.8979 106.292C50.3139 106.292 50.7059 106.12 51.0739 105.776C51.4419 105.432 51.7419 104.936 51.9739 104.288C52.2059 103.648 52.3219 102.876 52.3219 101.972C52.3219 101.7 52.3139 101.4 52.2979 101.072C52.2899 100.736 52.2739 100.384 52.2499 100.016C52.0579 100.432 51.8419 100.844 51.6019 101.252C51.3699 101.66 51.1259 102.028 50.8699 102.356C50.6219 102.684 50.3619 102.948 50.0899 103.148C49.8259 103.34 49.5579 103.436 49.2859 103.436C48.9419 103.436 48.6939 103.348 48.5419 103.172C48.3899 102.996 48.3139 102.724 48.3139 102.356C48.3139 101.972 48.3419 101.556 48.3979 101.108C48.4539 100.66 48.5259 100.208 48.6139 99.752C48.7099 99.288 48.8219 98.848 48.9499 98.432C49.0779 98.016 49.2139 97.656 49.3579 97.352C49.4379 97.192 49.5579 97.112 49.7179 97.112C49.8299 97.112 49.9379 97.172 50.0419 97.292C50.1539 97.404 50.2099 97.552 50.2099 97.736C50.2099 97.88 50.1779 98.084 50.1139 98.348C50.0499 98.612 49.9699 98.912 49.8739 99.248C49.7779 99.584 49.6819 99.936 49.5859 100.304C49.4899 100.664 49.4099 101.02 49.3459 101.372C49.2819 101.716 49.2499 102.032 49.2499 102.32C49.2499 102.44 49.3299 102.5 49.4899 102.5C49.5779 102.5 49.7019 102.42 49.8619 102.26C50.0299 102.092 50.2139 101.876 50.4139 101.612C50.6219 101.34 50.8299 101.044 51.0379 100.724C51.2539 100.396 51.4619 100.072 51.6619 99.752C51.8619 99.424 52.0339 99.124 52.1779 98.852C52.1699 98.788 52.1659 98.728 52.1659 98.672C52.1659 98.616 52.1659 98.564 52.1659 98.516C52.1659 98.124 52.2059 97.88 52.2859 97.784C52.3739 97.68 52.4859 97.628 52.6219 97.628C52.8539 97.628 53.0179 97.68 53.1139 97.784C53.2099 97.888 53.2579 98.068 53.2579 98.324C53.2579 98.42 53.2459 98.524 53.2219 98.636C53.1979 98.74 53.1579 98.892 53.1019 99.092C53.1659 99.724 53.2179 100.292 53.2579 100.796C53.3059 101.3 53.3299 101.808 53.3299 102.32C53.3299 103.288 53.1739 104.128 52.8619 104.84C52.5579 105.552 52.1259 106.104 51.5659 106.496C51.0139 106.888 50.3619 107.084 49.6099 107.084ZM64.0587 104.36C63.7947 104.36 63.5787 104.32 63.4107 104.24C63.2427 104.16 63.1187 104.068 63.0387 103.964C62.9667 103.86 62.9307 103.776 62.9307 103.712C62.9307 103.52 62.9787 103.388 63.0747 103.316C63.1707 103.244 63.3707 103.208 63.6747 103.208C63.8507 103.208 64.0947 103.176 64.4067 103.112C64.7267 103.04 65.0787 102.94 65.4627 102.812C65.8467 102.676 66.2387 102.512 66.6387 102.32C67.0387 102.128 67.4107 101.908 67.7547 101.66C68.0987 101.412 68.3867 101.14 68.6187 100.844C68.8587 100.54 69.0107 100.216 69.0747 99.872C68.8427 99.824 68.6067 99.792 68.3667 99.776C68.1347 99.752 67.9027 99.74 67.6707 99.74C66.9667 99.74 66.2507 99.816 65.5227 99.968C64.7947 100.112 64.0587 100.276 63.3147 100.46C63.2907 100.684 63.2707 100.888 63.2547 101.072C63.2387 101.256 63.2267 101.452 63.2187 101.66C63.1947 102.172 63.1347 102.512 63.0387 102.68C62.9507 102.84 62.8507 102.92 62.7387 102.92C62.5627 102.92 62.4267 102.816 62.3307 102.608C62.2347 102.4 62.1867 102.068 62.1867 101.612C62.1867 100.156 62.3307 98.9 62.6187 97.844C62.9067 96.788 63.3347 95.976 63.9027 95.408C64.4707 94.84 65.1667 94.556 65.9907 94.556C66.5747 94.556 67.0267 94.712 67.3467 95.024C67.6747 95.336 67.8387 95.788 67.8387 96.38C67.8387 96.788 67.7667 97.212 67.6227 97.652C67.4787 98.084 67.2667 98.48 66.9867 98.84C67.2027 98.8 67.4147 98.772 67.6227 98.756C67.8307 98.732 68.0227 98.72 68.1987 98.72C68.8067 98.72 69.2787 98.82 69.6147 99.02C69.9507 99.22 70.1187 99.516 70.1187 99.908C70.1187 100.364 69.9907 100.792 69.7347 101.192C69.4867 101.592 69.1547 101.956 68.7387 102.284C68.3307 102.612 67.8867 102.908 67.4067 103.172C66.9267 103.428 66.4587 103.644 66.0027 103.82C65.5467 103.996 65.1427 104.128 64.7907 104.216C64.4467 104.312 64.2027 104.36 64.0587 104.36ZM63.4227 99.428C64.3107 99.268 64.9987 99.056 65.4867 98.792C65.9747 98.528 66.3147 98.22 66.5067 97.868C66.6987 97.508 66.7947 97.104 66.7947 96.656C66.7947 96.512 66.7707 96.364 66.7227 96.212C66.6747 96.052 66.5827 95.916 66.4467 95.804C66.3107 95.692 66.1147 95.636 65.8587 95.636C65.2027 95.636 64.6747 95.936 64.2747 96.536C63.8827 97.136 63.5987 98.1 63.4227 99.428ZM72.7087 104.312C72.4047 104.312 72.1527 104.172 71.9527 103.892C71.7607 103.604 71.6647 103.232 71.6647 102.776C71.6647 102.352 71.7687 101.932 71.9767 101.516C72.1927 101.1 72.4767 100.7 72.8287 100.316C73.1807 99.932 73.5647 99.58 73.9807 99.26C74.3967 98.932 74.8127 98.648 75.2287 98.408C75.6527 98.168 76.0407 97.98 76.3927 97.844C76.7447 97.708 77.0247 97.64 77.2327 97.64C77.3447 97.64 77.4367 97.664 77.5087 97.712C77.5807 97.752 77.6167 97.828 77.6167 97.94C77.6167 98.012 77.5887 98.08 77.5327 98.144C77.5407 98.144 77.5487 98.144 77.5567 98.144C77.7327 98.144 77.8207 98.248 77.8207 98.456C77.8207 98.528 77.7927 98.676 77.7367 98.9C77.6807 99.116 77.6167 99.388 77.5447 99.716C77.4727 100.044 77.4087 100.408 77.3527 100.808C77.2967 101.2 77.2687 101.6 77.2687 102.008C77.2687 102.352 77.4007 102.524 77.6647 102.524C77.9607 102.524 78.2607 102.456 78.5647 102.32C78.8687 102.184 79.1647 102.02 79.4527 101.828C79.7407 101.628 80.0047 101.432 80.2447 101.24C80.4847 101.04 80.6887 100.872 80.8567 100.736C81.0247 100.6 81.1447 100.532 81.2167 100.532C81.2807 100.532 81.3367 100.552 81.3847 100.592C81.4327 100.632 81.4567 100.696 81.4567 100.784C81.4567 100.864 81.3767 101.008 81.2167 101.216C81.0567 101.424 80.8447 101.66 80.5807 101.924C80.3167 102.188 80.0207 102.444 79.6927 102.692C79.3647 102.94 79.0287 103.144 78.6847 103.304C78.3407 103.464 78.0127 103.544 77.7007 103.544C77.4607 103.544 77.2407 103.472 77.0407 103.328C76.8487 103.176 76.6927 102.92 76.5727 102.56C76.4607 102.2 76.4047 101.704 76.4047 101.072V100.772C76.0127 101.42 75.6007 102.012 75.1687 102.548C74.7447 103.084 74.3207 103.512 73.8967 103.832C73.4807 104.152 73.0847 104.312 72.7087 104.312ZM77.0047 98.504C76.9647 98.52 76.9087 98.544 76.8367 98.576C76.4687 98.744 76.0847 98.952 75.6847 99.2C75.2927 99.448 74.9087 99.724 74.5327 100.028C74.1647 100.332 73.8327 100.648 73.5367 100.976C73.2407 101.304 73.0047 101.636 72.8287 101.972C72.6527 102.308 72.5647 102.636 72.5647 102.956C72.5647 103.06 72.5847 103.14 72.6247 103.196C72.6727 103.252 72.7527 103.28 72.8647 103.28C73.0247 103.28 73.2327 103.18 73.4887 102.98C73.7447 102.772 74.0247 102.5 74.3287 102.164C74.6407 101.828 74.9527 101.456 75.2647 101.048C75.5767 100.64 75.8727 100.228 76.1527 99.812C76.4407 99.396 76.6887 99.012 76.8967 98.66C76.9287 98.604 76.9647 98.552 77.0047 98.504ZM86.5498 104.636C86.0298 104.636 85.5498 104.512 85.1098 104.264C84.6778 104.016 84.2858 103.696 83.9338 103.304C83.5898 102.912 83.2818 102.492 83.0098 102.044C82.7458 101.588 82.5178 101.16 82.3258 100.76C82.1898 101.408 82.0818 101.932 82.0018 102.332C81.9298 102.732 81.8698 103.036 81.8218 103.244C81.7818 103.452 81.7418 103.592 81.7018 103.664C81.6618 103.736 81.6098 103.772 81.5458 103.772C81.3698 103.772 81.2018 103.676 81.0418 103.484C80.8818 103.292 80.8018 103.044 80.8018 102.74C80.8018 102.42 80.8578 101.996 80.9698 101.468C81.0818 100.932 81.2298 100.34 81.4138 99.692C81.6058 99.036 81.8258 98.36 82.0738 97.664C82.3218 96.96 82.5778 96.276 82.8418 95.612C83.1138 94.94 83.3858 94.328 83.6578 93.776C83.7938 93.504 83.9098 93.328 84.0058 93.248C84.1098 93.168 84.2338 93.128 84.3778 93.128C84.6098 93.128 84.7258 93.236 84.7258 93.452C84.7258 93.532 84.7018 93.62 84.6538 93.716C84.6138 93.812 84.5698 93.92 84.5218 94.04C84.3778 94.392 84.2178 94.788 84.0418 95.228C83.8738 95.668 83.7018 96.128 83.5258 96.608C83.3578 97.088 83.1978 97.564 83.0458 98.036C82.8938 98.508 82.7618 98.944 82.6498 99.344C82.9938 99.104 83.3978 98.864 83.8618 98.624C84.3258 98.384 84.8058 98.168 85.3018 97.976C85.7978 97.776 86.2658 97.616 86.7058 97.496C87.1458 97.376 87.5098 97.316 87.7978 97.316C87.9498 97.316 88.0658 97.364 88.1458 97.46C88.2338 97.548 88.2778 97.648 88.2778 97.76C88.2778 97.848 88.2498 97.936 88.1938 98.024C88.1458 98.104 88.0418 98.176 87.8818 98.24C87.3538 98.424 86.8298 98.612 86.3098 98.804C85.7898 98.988 85.2458 99.188 84.6778 99.404C84.1178 99.612 83.5058 99.86 82.8418 100.148C83.0498 100.5 83.2938 100.88 83.5738 101.288C83.8538 101.688 84.1538 102.068 84.4738 102.428C84.7938 102.78 85.1218 103.072 85.4578 103.304C85.7938 103.528 86.1298 103.64 86.4658 103.64C86.9058 103.64 87.3298 103.548 87.7378 103.364C88.1458 103.18 88.5218 102.956 88.8658 102.692C89.2178 102.428 89.5258 102.172 89.7898 101.924C90.0538 101.668 90.2618 101.468 90.4138 101.324C90.4938 101.252 90.5658 101.204 90.6298 101.18C90.7018 101.148 90.7658 101.132 90.8218 101.132C90.9338 101.132 91.0098 101.192 91.0498 101.312C91.0978 101.424 91.0578 101.548 90.9298 101.684C90.8338 101.796 90.6858 101.968 90.4858 102.2C90.2858 102.432 90.0418 102.688 89.7538 102.968C89.4738 103.24 89.1618 103.504 88.8178 103.76C88.4818 104.016 88.1178 104.224 87.7258 104.384C87.3418 104.552 86.9498 104.636 86.5498 104.636ZM95.0982 98.828C95.0982 99.084 95.0182 99.336 94.8582 99.584C94.6982 99.824 94.4862 100.056 94.2222 100.28C93.9582 100.496 93.6662 100.7 93.3462 100.892C93.0262 101.084 92.7062 101.252 92.3862 101.396C92.0662 101.54 91.7742 101.656 91.5102 101.744C91.4462 102.056 91.4142 102.332 91.4142 102.572C91.4142 102.724 91.4502 102.832 91.5222 102.896C91.5942 102.96 91.7062 102.992 91.8582 102.992C92.1942 102.992 92.5502 102.932 92.9262 102.812C93.3022 102.692 93.6862 102.536 94.0782 102.344C94.4702 102.152 94.8462 101.948 95.2062 101.732C95.5662 101.516 95.8942 101.312 96.1902 101.12C96.4942 100.928 96.7462 100.772 96.9462 100.652C97.1462 100.532 97.2782 100.472 97.3422 100.472C97.4382 100.472 97.5102 100.504 97.5582 100.568C97.6142 100.624 97.6422 100.692 97.6422 100.772C97.6422 100.836 97.5422 100.96 97.3422 101.144C97.1502 101.328 96.8902 101.544 96.5622 101.792C96.2342 102.032 95.8662 102.28 95.4582 102.536C95.0502 102.792 94.6262 103.032 94.1862 103.256C93.7542 103.48 93.3342 103.66 92.9262 103.796C92.5262 103.932 92.1662 104 91.8462 104C91.4302 104 91.1062 103.844 90.8742 103.532C90.6422 103.22 90.5262 102.736 90.5262 102.08C90.5262 101.64 90.5822 101.196 90.6942 100.748C90.8142 100.3 90.9742 99.872 91.1742 99.464C91.3822 99.048 91.6102 98.68 91.8582 98.36C92.1142 98.032 92.3822 97.776 92.6622 97.592C92.9422 97.4 93.2142 97.304 93.4782 97.304C93.9822 97.304 94.3782 97.444 94.6662 97.724C94.9542 98.004 95.0982 98.372 95.0982 98.828ZM91.7622 100.82C92.0102 100.668 92.2662 100.508 92.5302 100.34C92.7942 100.172 93.0382 100 93.2622 99.824C93.4862 99.648 93.6662 99.464 93.8022 99.272C93.9462 99.072 94.0182 98.868 94.0182 98.66C94.0182 98.364 93.8582 98.216 93.5382 98.216C93.3382 98.216 93.1262 98.344 92.9022 98.6C92.6862 98.848 92.4782 99.172 92.2782 99.572C92.0782 99.972 91.9062 100.388 91.7622 100.82ZM101.687 97.964C101.903 97.444 102.107 96.908 102.299 96.356C102.499 95.804 102.679 95.24 102.839 94.664C102.887 94.504 102.959 94.376 103.055 94.28C103.159 94.176 103.279 94.124 103.415 94.124C103.511 94.124 103.591 94.16 103.655 94.232C103.727 94.304 103.763 94.4 103.763 94.52C103.763 94.672 103.703 94.936 103.583 95.312C103.471 95.688 103.327 96.164 103.151 96.74C102.983 97.316 102.811 97.98 102.635 98.732C102.467 99.476 102.323 100.3 102.203 101.204C102.091 102.108 102.035 103.072 102.035 104.096C102.035 104.32 101.987 104.504 101.891 104.648C101.795 104.8 101.679 104.876 101.543 104.876C101.463 104.876 101.387 104.856 101.315 104.816C101.243 104.776 101.179 104.68 101.123 104.528C101.075 104.384 101.035 104.156 101.003 103.844C100.971 103.524 100.955 103.092 100.955 102.548C100.955 102.132 100.979 101.68 101.027 101.192C100.659 101.856 100.259 102.436 99.8274 102.932C99.4034 103.42 98.9914 103.796 98.5914 104.06C98.1994 104.324 97.8634 104.456 97.5834 104.456C97.2394 104.456 96.9594 104.34 96.7434 104.108C96.5354 103.884 96.4314 103.548 96.4314 103.1C96.4314 102.708 96.5234 102.304 96.7074 101.888C96.8914 101.472 97.1354 101.064 97.4394 100.664C97.7434 100.256 98.0794 99.872 98.4474 99.512C98.8154 99.152 99.1834 98.836 99.5514 98.564C99.9274 98.284 100.275 98.068 100.595 97.916C100.915 97.756 101.175 97.676 101.375 97.676C101.455 97.676 101.527 97.704 101.591 97.76C101.655 97.816 101.687 97.884 101.687 97.964ZM101.531 98.336C101.475 98.392 101.407 98.448 101.327 98.504C101.247 98.56 101.159 98.62 101.063 98.684C100.711 98.932 100.323 99.22 99.8994 99.548C99.4834 99.868 99.0834 100.22 98.6994 100.604C98.3234 100.98 98.0154 101.376 97.7754 101.792C97.5354 102.208 97.4154 102.636 97.4154 103.076C97.4154 103.268 97.5114 103.364 97.7034 103.364C97.9674 103.364 98.2554 103.24 98.5674 102.992C98.8874 102.736 99.2154 102.384 99.5514 101.936C99.8874 101.48 100.223 100.948 100.559 100.34C100.895 99.724 101.219 99.056 101.531 98.336ZM103.275 107.78C103.027 107.844 102.863 107.84 102.783 107.768C102.703 107.696 102.663 107.616 102.663 107.528C102.663 107.464 102.683 107.4 102.723 107.336C102.763 107.28 102.839 107.216 102.951 107.144C103.351 106.896 103.675 106.536 103.923 106.064C104.163 105.6 104.355 105.068 104.499 104.468C104.643 103.876 104.755 103.272 104.835 102.656C104.859 102.496 104.903 102.384 104.967 102.32C105.031 102.256 105.103 102.224 105.183 102.224C105.383 102.224 105.559 102.308 105.711 102.476C105.871 102.636 105.951 102.884 105.951 103.22C105.951 103.78 105.867 104.316 105.699 104.828C105.531 105.34 105.311 105.804 105.039 106.22C104.767 106.636 104.475 106.98 104.163 107.252C103.851 107.524 103.555 107.7 103.275 107.78ZM116.946 104.576C116.69 104.576 116.422 104.512 116.142 104.384C115.87 104.264 115.638 104.064 115.446 103.784C115.262 103.496 115.17 103.116 115.17 102.644C115.17 102.092 115.218 101.508 115.314 100.892C115.41 100.276 115.534 99.66 115.686 99.044C115.846 98.42 116.022 97.828 116.214 97.268C116.406 96.708 116.598 96.208 116.79 95.768C116.99 95.328 117.174 94.984 117.342 94.736C117.51 94.48 117.65 94.352 117.762 94.352C117.914 94.352 118.042 94.412 118.146 94.532C118.258 94.652 118.314 94.82 118.314 95.036C118.314 95.124 118.262 95.332 118.158 95.66C118.054 95.98 117.922 96.384 117.762 96.872C117.602 97.36 117.43 97.888 117.246 98.456C117.07 99.024 116.902 99.596 116.742 100.172C116.582 100.748 116.45 101.292 116.346 101.804C116.242 102.316 116.19 102.752 116.19 103.112C116.19 103.216 116.218 103.316 116.274 103.412C116.33 103.5 116.422 103.544 116.55 103.544C116.726 103.544 116.978 103.504 117.306 103.424C117.642 103.344 118.006 103.248 118.398 103.136C118.79 103.016 119.166 102.9 119.526 102.788C119.886 102.676 120.19 102.58 120.438 102.5C120.686 102.42 120.826 102.38 120.858 102.38C120.954 102.38 121.034 102.408 121.098 102.464C121.162 102.512 121.194 102.588 121.194 102.692C121.194 102.82 121.098 102.968 120.906 103.136C120.722 103.304 120.474 103.472 120.162 103.64C119.858 103.808 119.518 103.96 119.142 104.096C118.766 104.24 118.386 104.356 118.002 104.444C117.626 104.532 117.274 104.576 116.946 104.576ZM124.031 104.12C123.559 104.12 123.187 103.94 122.915 103.58C122.643 103.22 122.507 102.752 122.507 102.176C122.507 101.968 122.535 101.748 122.591 101.516C122.655 101.276 122.735 101.06 122.831 100.868C122.775 100.812 122.731 100.736 122.699 100.64C122.667 100.536 122.651 100.408 122.651 100.256C122.651 99.784 122.731 99.352 122.891 98.96C123.051 98.568 123.263 98.228 123.527 97.94C123.791 97.644 124.083 97.416 124.403 97.256C124.731 97.096 125.063 97.016 125.399 97.016C125.951 97.016 126.399 97.216 126.743 97.616C127.087 98.008 127.259 98.608 127.259 99.416C127.259 99.84 127.195 100.272 127.067 100.712C126.947 101.152 126.779 101.576 126.563 101.984C126.355 102.392 126.111 102.756 125.831 103.076C125.559 103.396 125.267 103.652 124.955 103.844C124.651 104.028 124.343 104.12 124.031 104.12ZM123.623 100.46C123.671 100.524 123.695 100.608 123.695 100.712C123.695 100.832 123.671 100.952 123.623 101.072C123.583 101.192 123.539 101.356 123.491 101.564C123.443 101.772 123.419 102.068 123.419 102.452C123.419 102.836 123.571 103.028 123.875 103.028C124.211 103.028 124.523 102.896 124.811 102.632C125.099 102.36 125.355 102.012 125.579 101.588C125.803 101.164 125.975 100.712 126.095 100.232C126.223 99.744 126.287 99.284 126.287 98.852C126.287 98.572 126.235 98.376 126.131 98.264C126.027 98.144 125.839 98.084 125.567 98.084C125.287 98.084 124.995 98.18 124.691 98.372C124.395 98.556 124.147 98.808 123.947 99.128C123.747 99.448 123.647 99.808 123.647 100.208C123.647 100.296 123.639 100.38 123.623 100.46ZM130.042 103.7C129.922 103.7 129.802 103.612 129.682 103.436C129.57 103.26 129.486 103.012 129.43 102.692C129.374 102.356 129.322 101.972 129.274 101.54C129.226 101.108 129.186 100.684 129.154 100.268C129.122 99.852 129.098 99.484 129.082 99.164C129.066 98.844 129.058 98.628 129.058 98.516C129.058 98.1 129.122 97.792 129.25 97.592C129.386 97.384 129.558 97.28 129.766 97.28C129.91 97.28 130.014 97.32 130.078 97.4C130.142 97.472 130.174 97.64 130.174 97.904C130.174 98.08 130.178 98.308 130.186 98.588C130.194 98.868 130.206 99.172 130.222 99.5C130.238 99.892 130.254 100.308 130.27 100.748C130.286 101.18 130.298 101.608 130.306 102.032C130.498 101.712 130.718 101.356 130.966 100.964C131.222 100.572 131.482 100.172 131.746 99.764C132.01 99.348 132.266 98.952 132.514 98.576C132.762 98.2 132.982 97.872 133.174 97.592C133.366 97.312 133.514 97.108 133.618 96.98C133.754 96.82 133.878 96.708 133.99 96.644C134.11 96.58 134.214 96.548 134.302 96.548C134.422 96.548 134.518 96.592 134.59 96.68C134.67 96.768 134.71 96.892 134.71 97.052C134.71 97.148 134.69 97.256 134.65 97.376C134.618 97.488 134.558 97.604 134.47 97.724C134.254 98.052 133.994 98.436 133.69 98.876C133.386 99.316 133.07 99.772 132.742 100.244C132.414 100.716 132.094 101.176 131.782 101.624C131.47 102.064 131.198 102.452 130.966 102.788C130.558 103.396 130.25 103.7 130.042 103.7ZM135.685 104.06C135.533 104.06 135.397 104.004 135.277 103.892C135.157 103.772 135.097 103.588 135.097 103.34C135.097 103.164 135.121 102.92 135.169 102.608C135.217 102.288 135.281 101.94 135.361 101.564C135.441 101.188 135.525 100.816 135.613 100.448C135.709 100.072 135.805 99.736 135.901 99.44C135.997 99.144 136.081 98.924 136.153 98.78C136.217 98.668 136.277 98.596 136.333 98.564C136.397 98.532 136.457 98.516 136.513 98.516C136.625 98.516 136.721 98.552 136.801 98.624C136.889 98.696 136.933 98.836 136.933 99.044C136.933 99.164 136.909 99.364 136.861 99.644C136.821 99.916 136.765 100.236 136.693 100.604C136.629 100.964 136.557 101.336 136.477 101.72C136.405 102.096 136.333 102.456 136.261 102.8C136.189 103.144 136.133 103.432 136.093 103.664C136.061 103.792 136.005 103.892 135.925 103.964C135.853 104.028 135.773 104.06 135.685 104.06ZM136.861 97.424C136.677 97.424 136.501 97.368 136.333 97.256C136.173 97.144 136.093 96.964 136.093 96.716C136.093 96.508 136.141 96.34 136.237 96.212C136.341 96.084 136.461 95.992 136.597 95.936C136.741 95.872 136.865 95.84 136.969 95.84C137.073 95.84 137.189 95.864 137.317 95.912C137.453 95.952 137.569 96.032 137.665 96.152C137.761 96.264 137.809 96.432 137.809 96.656C137.809 96.808 137.757 96.944 137.653 97.064C137.549 97.176 137.421 97.264 137.269 97.328C137.125 97.392 136.989 97.424 136.861 97.424ZM139.567 103.724C139.335 103.724 139.127 103.592 138.943 103.328C138.759 103.064 138.667 102.724 138.667 102.308C138.667 101.852 138.727 101.364 138.847 100.844C138.975 100.324 139.131 99.796 139.315 99.26C139.499 98.716 139.679 98.192 139.855 97.688C139.895 97.584 139.951 97.508 140.023 97.46C140.103 97.404 140.223 97.376 140.383 97.376C140.671 97.376 140.815 97.516 140.815 97.796C140.815 97.86 140.783 98.004 140.719 98.228C140.655 98.452 140.571 98.728 140.467 99.056C140.371 99.384 140.271 99.74 140.167 100.124C140.063 100.5 139.971 100.88 139.891 101.264C139.811 101.648 139.755 102.004 139.723 102.332C139.851 102.196 139.995 101.988 140.155 101.708C140.323 101.428 140.503 101.112 140.695 100.76C140.887 100.4 141.087 100.04 141.295 99.68C141.503 99.312 141.711 98.976 141.919 98.672C142.135 98.36 142.343 98.112 142.543 97.928C142.751 97.736 142.943 97.64 143.119 97.64C143.375 97.64 143.591 97.72 143.767 97.88C143.951 98.032 144.091 98.304 144.187 98.696C144.291 99.08 144.343 99.624 144.343 100.328C144.343 100.704 144.379 101.056 144.451 101.384C144.531 101.712 144.655 101.976 144.823 102.176C144.999 102.368 145.223 102.464 145.495 102.464C145.903 102.464 146.267 102.392 146.587 102.248C146.907 102.096 147.183 101.928 147.415 101.744C147.655 101.552 147.855 101.384 148.015 101.24C148.175 101.088 148.299 101.012 148.387 101.012C148.571 101.012 148.663 101.108 148.663 101.3C148.663 101.38 148.603 101.508 148.483 101.684C148.371 101.852 148.211 102.044 148.003 102.26C147.803 102.468 147.571 102.672 147.307 102.872C147.051 103.064 146.775 103.224 146.479 103.352C146.191 103.48 145.899 103.544 145.603 103.544C145.051 103.544 144.599 103.436 144.247 103.22C143.903 103.004 143.647 102.648 143.479 102.152C143.319 101.656 143.239 100.992 143.239 100.16C143.239 99.704 143.211 99.372 143.155 99.164C143.107 98.948 143.015 98.804 142.879 98.732C142.783 98.9 142.659 99.14 142.507 99.452C142.355 99.756 142.179 100.096 141.979 100.472C141.787 100.848 141.583 101.228 141.367 101.612C141.159 101.988 140.947 102.336 140.731 102.656C140.515 102.976 140.307 103.236 140.107 103.436C139.907 103.628 139.727 103.724 139.567 103.724ZM148.649 107.168C148.033 107.168 147.581 107.108 147.293 106.988C147.005 106.868 146.861 106.708 146.861 106.508C146.861 106.38 146.901 106.276 146.981 106.196C147.069 106.116 147.177 106.076 147.305 106.076C147.441 106.076 147.637 106.096 147.893 106.136C148.149 106.184 148.401 106.208 148.649 106.208C149.473 106.208 150.149 105.964 150.677 105.476C151.205 104.988 151.609 104.24 151.889 103.232C152.169 102.216 152.357 100.92 152.453 99.344C152.213 99.832 151.941 100.32 151.637 100.808C151.341 101.288 151.021 101.728 150.677 102.128C150.341 102.52 149.993 102.836 149.633 103.076C149.273 103.316 148.917 103.436 148.565 103.436C148.229 103.436 147.981 103.352 147.821 103.184C147.669 103.016 147.593 102.74 147.593 102.356C147.593 102.012 147.689 101.648 147.881 101.264C148.073 100.872 148.329 100.48 148.649 100.088C148.969 99.696 149.321 99.324 149.705 98.972C150.089 98.612 150.473 98.296 150.857 98.024C151.249 97.744 151.613 97.524 151.949 97.364C152.285 97.204 152.557 97.124 152.765 97.124C152.973 97.124 153.133 97.196 153.245 97.34C153.357 97.484 153.413 97.756 153.413 98.156C153.413 99.092 153.381 100.004 153.317 100.892C153.261 101.772 153.145 102.592 152.969 103.352C152.793 104.112 152.529 104.776 152.177 105.344C151.833 105.92 151.373 106.368 150.797 106.688C150.221 107.008 149.505 107.168 148.649 107.168ZM152.237 98.168C151.837 98.424 151.425 98.712 151.001 99.032C150.577 99.352 150.181 99.692 149.813 100.052C149.453 100.412 149.161 100.784 148.937 101.168C148.713 101.552 148.601 101.936 148.601 102.32C148.601 102.44 148.677 102.5 148.829 102.5C148.949 102.5 149.113 102.408 149.321 102.224C149.537 102.032 149.777 101.78 150.041 101.468C150.305 101.148 150.573 100.8 150.845 100.424C151.125 100.04 151.385 99.652 151.625 99.26C151.865 98.868 152.069 98.504 152.237 98.168ZM157.562 104.48C156.946 104.48 156.462 104.28 156.11 103.88C155.766 103.472 155.594 102.904 155.594 102.176C155.594 101.728 155.654 101.204 155.774 100.604C155.902 99.996 156.062 99.356 156.254 98.684C156.454 98.004 156.67 97.332 156.902 96.668C157.134 96.004 157.358 95.388 157.574 94.82C157.798 94.244 157.994 93.764 158.162 93.38C158.258 93.164 158.394 93.056 158.57 93.056C158.81 93.056 158.93 93.204 158.93 93.5C158.93 93.596 158.886 93.792 158.798 94.088C158.71 94.384 158.594 94.752 158.45 95.192C158.306 95.624 158.15 96.104 157.982 96.632C157.814 97.16 157.642 97.704 157.466 98.264C157.298 98.816 157.142 99.364 156.998 99.908C156.854 100.444 156.738 100.948 156.65 101.42C156.562 101.892 156.518 102.296 156.518 102.632C156.518 102.848 156.574 103.02 156.686 103.148C156.806 103.268 156.966 103.328 157.166 103.328C157.534 103.328 157.902 103.256 158.27 103.112C158.646 102.96 159.006 102.776 159.35 102.56C159.694 102.336 160.006 102.116 160.286 101.9C160.574 101.676 160.818 101.492 161.018 101.348C161.218 101.196 161.358 101.12 161.438 101.12C161.614 101.12 161.702 101.216 161.702 101.408C161.702 101.472 161.638 101.592 161.51 101.768C161.382 101.936 161.21 102.136 160.994 102.368C160.778 102.6 160.526 102.84 160.238 103.088C159.958 103.328 159.662 103.556 159.35 103.772C159.046 103.98 158.738 104.148 158.426 104.276C158.122 104.412 157.834 104.48 157.562 104.48ZM162.602 107.084C162.202 107.084 161.834 107.056 161.498 107C161.17 106.952 160.846 106.872 160.526 106.76C160.206 106.656 159.858 106.52 159.482 106.352C159.37 106.296 159.27 106.228 159.182 106.148C159.094 106.076 159.05 105.992 159.05 105.896C159.05 105.776 159.126 105.648 159.278 105.512C159.422 105.384 159.558 105.32 159.686 105.32C159.822 105.32 159.99 105.368 160.19 105.464C160.398 105.56 160.638 105.672 160.91 105.8C161.182 105.936 161.482 106.052 161.81 106.148C162.146 106.244 162.506 106.292 162.89 106.292C163.306 106.292 163.698 106.12 164.066 105.776C164.434 105.432 164.734 104.936 164.966 104.288C165.198 103.648 165.314 102.876 165.314 101.972C165.314 101.7 165.306 101.4 165.29 101.072C165.282 100.736 165.266 100.384 165.242 100.016C165.05 100.432 164.834 100.844 164.594 101.252C164.362 101.66 164.118 102.028 163.862 102.356C163.614 102.684 163.354 102.948 163.082 103.148C162.818 103.34 162.55 103.436 162.278 103.436C161.934 103.436 161.686 103.348 161.534 103.172C161.382 102.996 161.306 102.724 161.306 102.356C161.306 101.972 161.334 101.556 161.39 101.108C161.446 100.66 161.518 100.208 161.606 99.752C161.702 99.288 161.814 98.848 161.942 98.432C162.07 98.016 162.206 97.656 162.35 97.352C162.43 97.192 162.55 97.112 162.71 97.112C162.822 97.112 162.93 97.172 163.034 97.292C163.146 97.404 163.202 97.552 163.202 97.736C163.202 97.88 163.17 98.084 163.106 98.348C163.042 98.612 162.962 98.912 162.866 99.248C162.77 99.584 162.674 99.936 162.578 100.304C162.482 100.664 162.402 101.02 162.338 101.372C162.274 101.716 162.242 102.032 162.242 102.32C162.242 102.44 162.322 102.5 162.482 102.5C162.57 102.5 162.694 102.42 162.854 102.26C163.022 102.092 163.206 101.876 163.406 101.612C163.614 101.34 163.822 101.044 164.03 100.724C164.246 100.396 164.454 100.072 164.654 99.752C164.854 99.424 165.026 99.124 165.17 98.852C165.162 98.788 165.158 98.728 165.158 98.672C165.158 98.616 165.158 98.564 165.158 98.516C165.158 98.124 165.198 97.88 165.278 97.784C165.366 97.68 165.478 97.628 165.614 97.628C165.846 97.628 166.01 97.68 166.106 97.784C166.202 97.888 166.25 98.068 166.25 98.324C166.25 98.42 166.238 98.524 166.214 98.636C166.19 98.74 166.15 98.892 166.094 99.092C166.158 99.724 166.21 100.292 166.25 100.796C166.298 101.3 166.322 101.808 166.322 102.32C166.322 103.288 166.166 104.128 165.854 104.84C165.55 105.552 165.118 106.104 164.558 106.496C164.006 106.888 163.354 107.084 162.602 107.084ZM181.947 104.084C181.803 104.084 181.679 104.02 181.575 103.892C181.479 103.764 181.431 103.54 181.431 103.22C181.431 103.036 181.467 102.82 181.539 102.572C181.699 102.068 181.863 101.528 182.031 100.952C182.207 100.376 182.371 99.788 182.523 99.188C182.683 98.588 182.811 98.008 182.907 97.448C183.003 96.88 183.051 96.36 183.051 95.888C183.051 95.728 183.043 95.572 183.027 95.42C183.019 95.268 182.999 95.124 182.967 94.988C182.159 95.756 181.411 96.8 180.723 98.12C180.043 99.432 179.423 100.96 178.863 102.704C178.767 102.968 178.647 103.152 178.503 103.256C178.359 103.36 178.223 103.412 178.095 103.412C177.983 103.412 177.875 103.368 177.771 103.28C177.667 103.184 177.615 103.04 177.615 102.848C177.615 102.72 177.647 102.54 177.711 102.308C177.775 102.068 177.887 101.848 178.047 101.648C178.135 101.12 178.207 100.56 178.263 99.968C178.327 99.376 178.359 98.828 178.359 98.324C178.359 98.092 178.347 97.876 178.323 97.676C178.307 97.468 178.279 97.288 178.239 97.136C177.823 97.576 177.435 98.128 177.075 98.792C176.723 99.448 176.411 100.156 176.139 100.916C175.867 101.668 175.639 102.404 175.455 103.124C175.311 103.644 175.079 103.904 174.759 103.904C174.631 103.904 174.523 103.836 174.435 103.7C174.355 103.564 174.315 103.36 174.315 103.088C174.315 102.824 174.379 102.468 174.507 102.02C174.635 101.572 174.807 101.08 175.023 100.544C175.247 100.008 175.495 99.476 175.767 98.948C176.047 98.412 176.335 97.924 176.631 97.484C176.935 97.036 177.231 96.676 177.519 96.404C177.807 96.132 178.067 95.996 178.299 95.996C178.451 95.996 178.587 96.024 178.707 96.08C178.827 96.136 178.931 96.252 179.019 96.428C179.107 96.596 179.171 96.856 179.211 97.208C179.259 97.552 179.283 98.012 179.283 98.588C179.283 98.692 179.283 98.812 179.283 98.948C179.515 98.308 179.783 97.688 180.087 97.088C180.399 96.48 180.727 95.936 181.071 95.456C181.415 94.976 181.759 94.596 182.103 94.316C182.447 94.036 182.771 93.896 183.075 93.896C183.419 93.896 183.699 94.084 183.915 94.46C184.131 94.828 184.239 95.408 184.239 96.2C184.239 96.952 184.179 97.684 184.059 98.396C183.939 99.108 183.787 99.78 183.603 100.412C183.427 101.044 183.243 101.62 183.051 102.14C182.867 102.652 182.707 103.092 182.571 103.46C182.483 103.684 182.391 103.844 182.295 103.94C182.199 104.036 182.083 104.084 181.947 104.084ZM186.861 104.312C186.557 104.312 186.305 104.172 186.105 103.892C185.913 103.604 185.817 103.232 185.817 102.776C185.817 102.352 185.921 101.932 186.129 101.516C186.345 101.1 186.629 100.7 186.981 100.316C187.333 99.932 187.717 99.58 188.133 99.26C188.549 98.932 188.965 98.648 189.381 98.408C189.805 98.168 190.193 97.98 190.545 97.844C190.897 97.708 191.177 97.64 191.385 97.64C191.497 97.64 191.589 97.664 191.661 97.712C191.733 97.752 191.769 97.828 191.769 97.94C191.769 98.012 191.741 98.08 191.685 98.144C191.693 98.144 191.701 98.144 191.709 98.144C191.885 98.144 191.973 98.248 191.973 98.456C191.973 98.528 191.945 98.676 191.889 98.9C191.833 99.116 191.769 99.388 191.697 99.716C191.625 100.044 191.561 100.408 191.505 100.808C191.449 101.2 191.421 101.6 191.421 102.008C191.421 102.352 191.553 102.524 191.817 102.524C192.113 102.524 192.413 102.456 192.717 102.32C193.021 102.184 193.317 102.02 193.605 101.828C193.893 101.628 194.157 101.432 194.397 101.24C194.637 101.04 194.841 100.872 195.009 100.736C195.177 100.6 195.297 100.532 195.369 100.532C195.433 100.532 195.489 100.552 195.537 100.592C195.585 100.632 195.609 100.696 195.609 100.784C195.609 100.864 195.529 101.008 195.369 101.216C195.209 101.424 194.997 101.66 194.733 101.924C194.469 102.188 194.173 102.444 193.845 102.692C193.517 102.94 193.181 103.144 192.837 103.304C192.493 103.464 192.165 103.544 191.853 103.544C191.613 103.544 191.393 103.472 191.193 103.328C191.001 103.176 190.845 102.92 190.725 102.56C190.613 102.2 190.557 101.704 190.557 101.072V100.772C190.165 101.42 189.753 102.012 189.321 102.548C188.897 103.084 188.473 103.512 188.049 103.832C187.633 104.152 187.237 104.312 186.861 104.312ZM191.157 98.504C191.117 98.52 191.061 98.544 190.989 98.576C190.621 98.744 190.237 98.952 189.837 99.2C189.445 99.448 189.061 99.724 188.685 100.028C188.317 100.332 187.985 100.648 187.689 100.976C187.393 101.304 187.157 101.636 186.981 101.972C186.805 102.308 186.717 102.636 186.717 102.956C186.717 103.06 186.737 103.14 186.777 103.196C186.825 103.252 186.905 103.28 187.017 103.28C187.177 103.28 187.385 103.18 187.641 102.98C187.897 102.772 188.177 102.5 188.481 102.164C188.793 101.828 189.105 101.456 189.417 101.048C189.729 100.64 190.025 100.228 190.305 99.812C190.593 99.396 190.841 99.012 191.049 98.66C191.081 98.604 191.117 98.552 191.157 98.504ZM199.445 97.964C199.661 97.444 199.865 96.908 200.057 96.356C200.257 95.804 200.437 95.24 200.597 94.664C200.645 94.504 200.717 94.376 200.813 94.28C200.917 94.176 201.037 94.124 201.173 94.124C201.269 94.124 201.349 94.16 201.413 94.232C201.485 94.304 201.521 94.4 201.521 94.52C201.521 94.672 201.461 94.936 201.341 95.312C201.229 95.688 201.085 96.164 200.909 96.74C200.741 97.316 200.569 97.98 200.393 98.732C200.225 99.476 200.081 100.3 199.961 101.204C199.849 102.108 199.793 103.072 199.793 104.096C199.793 104.32 199.745 104.504 199.649 104.648C199.553 104.8 199.437 104.876 199.301 104.876C199.221 104.876 199.145 104.856 199.073 104.816C199.001 104.776 198.937 104.68 198.881 104.528C198.833 104.384 198.793 104.156 198.761 103.844C198.729 103.524 198.713 103.092 198.713 102.548C198.713 102.132 198.737 101.68 198.785 101.192C198.417 101.856 198.017 102.436 197.585 102.932C197.161 103.42 196.749 103.796 196.349 104.06C195.957 104.324 195.621 104.456 195.341 104.456C194.997 104.456 194.717 104.34 194.501 104.108C194.293 103.884 194.189 103.548 194.189 103.1C194.189 102.708 194.281 102.304 194.465 101.888C194.649 101.472 194.893 101.064 195.197 100.664C195.501 100.256 195.837 99.872 196.205 99.512C196.573 99.152 196.941 98.836 197.309 98.564C197.685 98.284 198.033 98.068 198.353 97.916C198.673 97.756 198.933 97.676 199.133 97.676C199.213 97.676 199.285 97.704 199.349 97.76C199.413 97.816 199.445 97.884 199.445 97.964ZM199.289 98.336C199.233 98.392 199.165 98.448 199.085 98.504C199.005 98.56 198.917 98.62 198.821 98.684C198.469 98.932 198.081 99.22 197.657 99.548C197.241 99.868 196.841 100.22 196.457 100.604C196.081 100.98 195.773 101.376 195.533 101.792C195.293 102.208 195.173 102.636 195.173 103.076C195.173 103.268 195.269 103.364 195.461 103.364C195.725 103.364 196.013 103.24 196.325 102.992C196.645 102.736 196.973 102.384 197.309 101.936C197.645 101.48 197.981 100.948 198.317 100.34C198.653 99.724 198.977 99.056 199.289 98.336ZM206.872 98.828C206.872 99.084 206.792 99.336 206.632 99.584C206.472 99.824 206.26 100.056 205.996 100.28C205.732 100.496 205.44 100.7 205.12 100.892C204.8 101.084 204.48 101.252 204.16 101.396C203.84 101.54 203.548 101.656 203.284 101.744C203.22 102.056 203.188 102.332 203.188 102.572C203.188 102.724 203.224 102.832 203.296 102.896C203.368 102.96 203.48 102.992 203.632 102.992C203.968 102.992 204.324 102.932 204.7 102.812C205.076 102.692 205.46 102.536 205.852 102.344C206.244 102.152 206.62 101.948 206.98 101.732C207.34 101.516 207.668 101.312 207.964 101.12C208.268 100.928 208.52 100.772 208.72 100.652C208.92 100.532 209.052 100.472 209.116 100.472C209.212 100.472 209.284 100.504 209.332 100.568C209.388 100.624 209.416 100.692 209.416 100.772C209.416 100.836 209.316 100.96 209.116 101.144C208.924 101.328 208.664 101.544 208.336 101.792C208.008 102.032 207.64 102.28 207.232 102.536C206.824 102.792 206.4 103.032 205.96 103.256C205.528 103.48 205.108 103.66 204.7 103.796C204.3 103.932 203.94 104 203.62 104C203.204 104 202.88 103.844 202.648 103.532C202.416 103.22 202.3 102.736 202.3 102.08C202.3 101.64 202.356 101.196 202.468 100.748C202.588 100.3 202.748 99.872 202.948 99.464C203.156 99.048 203.384 98.68 203.632 98.36C203.888 98.032 204.156 97.776 204.436 97.592C204.716 97.4 204.988 97.304 205.252 97.304C205.756 97.304 206.152 97.444 206.44 97.724C206.728 98.004 206.872 98.372 206.872 98.828ZM203.536 100.82C203.784 100.668 204.04 100.508 204.304 100.34C204.568 100.172 204.812 100 205.036 99.824C205.26 99.648 205.44 99.464 205.576 99.272C205.72 99.072 205.792 98.868 205.792 98.66C205.792 98.364 205.632 98.216 205.312 98.216C205.112 98.216 204.9 98.344 204.676 98.6C204.46 98.848 204.252 99.172 204.052 99.572C203.852 99.972 203.68 100.388 203.536 100.82ZM210.474 101.036C210.402 101.036 210.338 101 210.282 100.928C210.234 100.848 210.21 100.744 210.21 100.616C210.21 100.44 210.242 100.164 210.306 99.788C210.378 99.404 210.47 98.96 210.582 98.456C210.702 97.944 210.838 97.412 210.99 96.86C211.15 96.308 211.318 95.768 211.494 95.24C211.67 94.704 211.846 94.228 212.022 93.812C212.142 93.532 212.29 93.392 212.466 93.392C212.65 93.392 212.818 93.48 212.97 93.656C213.122 93.832 213.198 94.048 213.198 94.304C213.198 94.4 213.15 94.58 213.054 94.844C212.966 95.108 212.846 95.428 212.694 95.804C212.55 96.18 212.39 96.584 212.214 97.016C212.038 97.448 211.858 97.888 211.674 98.336C211.498 98.776 211.334 99.192 211.182 99.584C211.03 99.976 210.91 100.316 210.822 100.604C210.766 100.78 210.714 100.896 210.666 100.952C210.618 101.008 210.554 101.036 210.474 101.036ZM209.766 104.612C209.646 104.612 209.522 104.544 209.394 104.408C209.266 104.272 209.202 103.996 209.202 103.58C209.202 103.348 209.278 103.176 209.43 103.064C209.582 102.944 209.778 102.884 210.018 102.884C210.426 102.884 210.63 103.096 210.63 103.52C210.63 103.72 210.582 103.9 210.486 104.06C210.39 104.228 210.274 104.36 210.138 104.456C210.01 104.56 209.886 104.612 209.766 104.612Z" fill="#B69121"/>
</svg>
