<svg width="108" height="16" viewBox="0 0 108 16" fill="none" xmlns="http://www.w3.org/2000/svg">
<path d="M101.703 4.90918L107.294 6.11133L103.483 10.3477L104.059 16L98.8236 13.709L93.5883 16L94.1645 10.3477L90.3529 6.11133L95.9438 4.90918L98.8236 0L101.703 4.90918Z" fill="#FFCB45"/>
<path d="M79.1143 4.90918L84.7061 6.11133L80.8946 10.3477L81.4708 16L76.2354 13.709L71.0001 16L71.5762 10.3477L67.7647 6.11133L73.3555 4.90918L76.2354 0L79.1143 4.90918Z" fill="#FFCB45"/>
<path d="M56.5261 4.90918L62.1179 6.11133L58.3064 10.3477L58.8825 16L53.6472 13.709L48.4118 16L48.988 10.3477L45.1765 6.11133L50.7673 4.90918L53.6472 0L56.5261 4.90918Z" fill="#FFCB45"/>
<path d="M33.9378 4.90918L39.5296 6.11133L35.7181 10.3477L36.2943 16L31.0589 13.709L25.8236 16L26.3997 10.3477L22.5882 6.11133L28.179 4.90918L31.0589 0L33.9378 4.90918Z" fill="#FFCB45"/>
<path d="M11.3496 4.90918L16.9414 6.11133L13.1299 10.3477L13.7061 16L8.4707 13.709L3.23535 16L3.81152 10.3477L0 6.11133L5.5918 4.90918L8.4707 0L11.3496 4.90918Z" fill="#FFCB45"/>
</svg>
