<svg width="94" height="89" viewBox="0 0 94 89" fill="none" xmlns="http://www.w3.org/2000/svg">
<path d="M25.6393 21.4917C16.2563 23.8516 10.6877 32.9033 13.2023 41.712C15.8376 50.9441 23.9259 58.2452 35.4659 63.8889C39.4041 65.8134 43.4897 67.3434 47.4776 68.637C48.8745 69.0874 50.175 69.4876 51.3286 69.8034C52.0319 69.9964 52.5018 70.1454 52.7902 70.2127C53.8621 70.4652 55.0854 70.1576 55.8792 69.4358C56.0931 69.2422 56.4207 68.8925 56.927 68.3953C57.7578 67.5804 58.6709 66.6235 59.6407 65.5778C62.4053 62.5859 65.1285 59.3433 67.514 55.8284C74.5017 45.5247 77.6172 35.4057 74.9818 26.1736C72.4673 17.3649 62.8232 12.1394 53.4401 14.4994C48.111 15.8397 43.686 19.874 41.5497 24.675C37.204 21.4297 31.261 20.0778 25.6393 21.4917Z" fill="url(#paint0_linear_8_46)"/>
<defs>
<linearGradient id="paint0_linear_8_46" x1="39.5397" y1="17.9955" x2="52.7727" y2="70.6087" gradientUnits="userSpaceOnUse">
<stop stop-color="#FFE491"/>
<stop offset="1" stop-color="#CAA229"/>
</linearGradient>
</defs>
</svg>
