<svg width="48" height="45" viewBox="0 0 48 45" fill="none" xmlns="http://www.w3.org/2000/svg">
<path d="M12.9477 10.9009C8.21585 12.091 5.42246 16.7074 6.70873 21.2134C8.05682 25.936 12.1537 29.681 17.9897 32.5848C19.9813 33.575 22.0466 34.3639 24.0621 35.0318C24.7681 35.2643 25.4253 35.471 26.0082 35.6344C26.3636 35.7342 26.6011 35.8112 26.7468 35.8461C27.2884 35.9769 27.9053 35.8218 28.3046 35.4543C28.4122 35.3557 28.5769 35.1776 28.8315 34.9243C29.2493 34.5093 29.7083 34.0218 30.1959 33.489C31.5856 31.9647 32.9539 30.3122 34.1513 28.52C37.6586 23.2661 39.2117 18.1001 37.8636 13.3775C36.5774 8.87155 31.6992 6.18464 26.9674 7.37475C24.2799 8.05068 22.0541 10.1048 20.985 12.5548C18.7851 10.8889 15.7826 10.1879 12.9477 10.9009Z" fill="url(#paint0_linear_9_61)"/>
<defs>
<linearGradient id="paint0_linear_9_61" x1="19.9575" y1="9.13783" x2="26.7266" y2="36.0515" gradientUnits="userSpaceOnUse">
<stop stop-color="#FFE491"/>
<stop offset="1" stop-color="#CAA229"/>
</linearGradient>
</defs>
</svg>
