<svg width="74" height="75" viewBox="0 0 74 75" fill="none" xmlns="http://www.w3.org/2000/svg">
<path d="M36.0102 14.1621C29.6039 10.9171 22.044 13.3501 19.1238 19.5984C16.0632 26.1469 17.0004 34.2626 20.682 43.1224C21.9391 46.1451 23.4724 49.0151 25.0672 51.7027C25.6271 52.6426 26.1579 53.5067 26.6478 54.2508C26.9464 54.7048 27.136 55.0196 27.2642 55.199C27.7397 55.8671 28.5748 56.2902 29.3732 56.2673C29.588 56.2616 29.9429 56.2226 30.4702 56.187C31.3351 56.1291 32.3157 56.0306 33.3717 55.9092C36.3872 55.557 39.5026 55.0417 42.5631 54.206C51.5314 51.7538 58.2437 47.5129 61.3043 40.9643C64.2245 34.716 61.3978 27.0218 54.9914 23.7768C51.3529 21.9338 46.8969 22.0676 43.3442 23.7579C42.5079 19.7834 39.8484 16.1063 36.0102 14.1621Z" fill="url(#paint0_linear_9_60)"/>
<defs>
<linearGradient id="paint0_linear_9_60" x1="45.5008" y1="18.9694" x2="27.0436" y2="55.4077" gradientUnits="userSpaceOnUse">
<stop stop-color="#FFE491"/>
<stop offset="1" stop-color="#CAA229"/>
</linearGradient>
</defs>
</svg>
