<svg width="83" height="75" viewBox="0 0 83 75" fill="none" xmlns="http://www.w3.org/2000/svg">
<path d="M24.8169 10.8584C15.0067 11.1985 7.54669 18.8923 8.15455 28.046C8.79162 37.6396 15.2496 46.4878 25.4854 54.438C28.9789 57.1496 32.7029 59.506 36.3807 61.6103C37.6696 62.3448 38.8736 63.0098 39.9499 63.5614C40.6061 63.898 41.0403 64.1427 41.3118 64.2692C42.3208 64.7416 43.5997 64.6972 44.5414 64.1572C44.795 64.0125 45.1947 63.739 45.8033 63.3585C46.8016 62.735 47.912 61.9898 49.0976 61.1695C52.4797 58.8205 55.8744 56.2174 58.9925 53.2766C68.1279 44.6549 73.3837 35.4007 72.7466 25.8071C72.1388 16.6534 63.6936 9.51092 53.8834 9.85095C48.3116 10.0441 43.0598 13.0649 39.9135 17.3174C36.2986 13.2268 30.6945 10.6547 24.8169 10.8584Z" fill="url(#paint0_linear_9_59)"/>
<defs>
<linearGradient id="paint0_linear_9_59" x1="39.3501" y1="10.3547" x2="41.2322" y2="64.6525" gradientUnits="userSpaceOnUse">
<stop stop-color="#FFE491"/>
<stop offset="1" stop-color="#CAA229"/>
</linearGradient>
</defs>
</svg>
