<svg width="40" height="37" viewBox="0 0 40 37" fill="none" xmlns="http://www.w3.org/2000/svg">
<path d="M10.7516 9.01229C6.81688 10.0019 4.48178 13.7976 5.53622 17.4915C6.64133 21.3628 10.033 24.4245 14.8722 26.7911C16.5237 27.5981 18.2369 28.2397 19.9092 28.7821C20.495 28.971 21.0403 29.1388 21.5241 29.2713C21.819 29.3522 22.0161 29.4147 22.137 29.4429C22.5865 29.5488 23.0994 29.4198 23.4323 29.1171C23.522 29.0359 23.6594 28.8893 23.8717 28.6808C24.2201 28.3391 24.603 27.9378 25.0097 27.4993C26.169 26.2447 27.3109 24.885 28.3112 23.411C31.2414 19.0903 32.5479 14.847 31.4428 10.9756C30.3883 7.28179 26.3442 5.09053 22.4095 6.08015C20.1748 6.64221 18.3192 8.33392 17.4234 10.3472C15.6011 8.98629 13.1089 8.41938 10.7516 9.01229Z" fill="#B69121"/>
</svg>
