<svg width="70" height="67" viewBox="0 0 70 67" fill="none" xmlns="http://www.w3.org/2000/svg">
<path d="M19.0618 16.0485C12.0955 17.8006 7.98303 24.597 9.8767 31.2307C11.8614 38.1833 17.8928 43.6968 26.4847 47.9719C29.4169 49.4297 32.4573 50.5911 35.4246 51.5744C36.464 51.9168 37.4316 52.2211 38.2897 52.4616C38.8129 52.6085 39.1626 52.7218 39.3771 52.7732C40.1744 52.9659 41.0826 52.7374 41.6705 52.1964C41.8289 52.0512 42.0713 51.789 42.4462 51.4162C43.0613 50.8051 43.7371 50.0875 44.4548 49.3031C46.5008 47.059 48.5153 44.6262 50.2781 41.9876C55.4417 34.2528 57.7282 26.6472 55.7435 19.6946C53.8498 13.0608 46.668 9.10513 39.7018 10.8572C35.7453 11.8523 32.4684 14.8765 30.8945 18.4834C27.6557 16.0308 23.2354 14.9988 19.0618 16.0485Z" fill="url(#paint0_linear_8_49)"/>
<defs>
<linearGradient id="paint0_linear_8_49" x1="29.3818" y1="13.4529" x2="39.3474" y2="53.0756" gradientUnits="userSpaceOnUse">
<stop stop-color="#FFE491"/>
<stop offset="1" stop-color="#CAA229"/>
</linearGradient>
</defs>
</svg>
