<svg width="284" height="53" viewBox="0 0 284 53" fill="none" xmlns="http://www.w3.org/2000/svg">
<path d="M23.0625 1C51.4516 1.00003 231.042 1.00002 260.971 1C268.121 1.00014 273.546 4.15052 277.233 8.89453C280.94 13.6635 282.902 20.0682 282.996 26.5146C283.09 32.9616 281.314 39.3544 277.664 44.1104C274.036 48.8368 268.522 51.9999 260.971 52H23.0625C15.1072 52 9.50502 48.8239 5.93555 44.1143C2.34118 39.3717 0.75035 32.9921 1.03223 26.5439C1.31409 20.0973 3.46421 13.6809 7.22754 8.89941C10.8585 4.28614 15.9809 1.1974 22.4336 1.00879L23.0625 1Z" fill="white" stroke="#B69121" stroke-width="2"/>
</svg>
